<svg id="Layer_1" data-name="Layer 1" xmlns="http://www.w3.org/2000/svg" viewBox="0 0 422.91 224.73"><defs><style>.cls-1{fill:#c32f27;}</style></defs><path class="cls-1" d="M7.53,12.18h4.81V14h1.24V12.7a1.89,1.89,0,0,0-1.89-1.89H8.18A1.89,1.89,0,0,0,6.29,12.7V14H7.53Z" transform="translate(-2.45 0)"/><path class="cls-1" d="M15,14.57H5a2.52,2.52,0,0,0-2.52,2.52V27.15a2.5,2.5,0,0,0,1.3,2.19,1.43,1.43,0,0,0,0,.22,1.25,1.25,0,0,0,2.49.11h7.6a1.25,1.25,0,0,0,2.49-.11,1.43,1.43,0,0,0,0-.22,2.5,2.5,0,0,0,1.3-2.19V17.09A2.52,2.52,0,0,0,15,14.57Zm-.81,11.48L11.66,26l-2.22-.11a.71.71,0,0,0-.59.24,2.31,2.31,0,0,1-1.9.76,2.37,2.37,0,0,1-1.38-.5,1.23,1.23,0,0,1,0-2,2.45,2.45,0,0,1,3.27.22.8.8,0,0,0,.65.26l2.4-.12,2.34-.07a.7.7,0,1,1,0,1.39Zm.12-5.33a1.42,1.42,0,0,1-.36,0l-3.61-.16c-.38,0-.75,0-1.13,0a.6.6,0,0,0-.58.34L8.6,21a1.06,1.06,0,0,1-.9.49c-.75,0-1.51,0-2.26,0a.37.37,0,0,1-.39-.37.38.38,0,0,1,.41-.37h1.4a.27.27,0,0,0,.09,0,.17.17,0,0,0,.19-.18A.19.19,0,0,0,7,20.38H5.46A.38.38,0,0,1,5.05,20a.38.38,0,0,1,.42-.38h1.4c.19,0,.28-.06.28-.19s-.1-.18-.28-.18H5.44a.38.38,0,1,1,0-.75H7.62a1.06,1.06,0,0,1,.75.24,2.17,2.17,0,0,1,.31.37.62.62,0,0,0,.49.31H10l2.9-.2h.6a6.47,6.47,0,0,1,.76.05A.74.74,0,0,1,15,20,.76.76,0,0,1,14.34,20.72Z" transform="translate(-2.45 0)"/><path class="cls-1" d="M43.88,10.29H53.5v3.57H56V11.33a3.77,3.77,0,0,0-3.77-3.78h-7a3.77,3.77,0,0,0-3.77,3.78v2.53h2.48Z" transform="translate(-2.45 0)"/><path class="cls-1" d="M58.9,15.07H38.75a5,5,0,0,0-5,5V40.25a5,5,0,0,0,2.61,4.39,1.93,1.93,0,0,0-.09.43,2.52,2.52,0,0,0,2.52,2.52,2.49,2.49,0,0,0,2.47-2.3h15.2a2.5,2.5,0,0,0,5-.22,1.93,1.93,0,0,0-.09-.43,5,5,0,0,0,2.6-4.39V20.11A5,5,0,0,0,58.9,15.07ZM57.26,38c-1.7,0-3.4-.09-5.11-.16l-4.44-.21a1.45,1.45,0,0,0-1.19.48,4.57,4.57,0,0,1-3.8,1.51,4.61,4.61,0,0,1-2.76-1,2.46,2.46,0,0,1,0-4,4.93,4.93,0,0,1,6.55.44,1.51,1.51,0,0,0,1.29.52l4.8-.23,4.68-.14a1.39,1.39,0,1,1,0,2.77Zm.26-10.66a2.59,2.59,0,0,1-.73.07l-7.23-.31c-.75,0-1.5-.06-2.25-.06a1.22,1.22,0,0,0-1.17.68,1,1,0,0,1-.12.17,2.11,2.11,0,0,1-1.8,1H39.7a.74.74,0,1,1,0-1.48h3a.37.37,0,1,0,0-.74h-3a.74.74,0,0,1-.82-.73.74.74,0,0,1,.82-.75h2.81c.37,0,.55-.12.55-.38s-.18-.36-.56-.36H39.7a.75.75,0,1,1,0-1.49h4.38a2.1,2.1,0,0,1,1.5.49,3.74,3.74,0,0,1,.63.74,1.19,1.19,0,0,0,1,.61,16.61,16.61,0,0,0,1.73,0c2-.12,3.89-.26,5.81-.39.42,0,.81,0,1.2,0a12.62,12.62,0,0,1,1.51.09,1.45,1.45,0,0,1,.1,2.87Z" transform="translate(-2.45 0)"/><path class="cls-1" d="M133.89,15.57h26.25v9.74h6.76v-6.9a10.3,10.3,0,0,0-10.3-10.3H137.42a10.3,10.3,0,0,0-10.3,10.3v6.9h6.77Z" transform="translate(-2.45 0)"/><path class="cls-1" d="M174.85,28.6H119.91a13.73,13.73,0,0,0-13.73,13.73V97.27a13.69,13.69,0,0,0,7.1,12,6.38,6.38,0,0,0-.23,1.17,6.82,6.82,0,0,0,13.61.6h41.45a6.8,6.8,0,0,0,6.74,6.27,6.88,6.88,0,0,0,6.87-6.87,6.39,6.39,0,0,0-.24-1.17,13.68,13.68,0,0,0,7.11-12V42.33A13.74,13.74,0,0,0,174.85,28.6ZM170.4,91.25q-7-.18-13.94-.45c-4-.16-8.08-.38-12.12-.57a3.92,3.92,0,0,0-3.25,1.3,12.44,12.44,0,0,1-10.34,4.13,12.7,12.7,0,0,1-7.55-2.73c-3.72-3-3.74-7.72-.1-10.85,4-3.48,12.77-4.5,17.86,1.2a4.14,4.14,0,0,0,3.53,1.41l13.09-.63c4-.12,8.4-.26,12.76-.36a3.78,3.78,0,1,1,.06,7.55Zm.69-29.07a7.82,7.82,0,0,1-2,.19c-6.57-.27-13.13-.57-19.7-.84-2.05-.09-4.1-.17-6.15-.19a3.37,3.37,0,0,0-3.19,1.85,4.13,4.13,0,0,1-.32.49,5.81,5.81,0,0,1-4.91,2.7q-6.17,0-12.33,0a2,2,0,0,1-2.11-2,2,2,0,0,1,2.19-2h8.18a1,1,0,1,0,0-2,5.56,5.56,0,0,0-.58,0h-7.59a2,2,0,0,1-2.24-2,2.06,2.06,0,0,1,2.26-2.06h7.65c1,0,1.51-.33,1.5-1s-.5-1-1.52-1H122.5a2,2,0,1,1,0-4.06c4,0,8,0,11.94,0a5.79,5.79,0,0,1,4.1,1.33,11.38,11.38,0,0,1,1.7,2,3.27,3.27,0,0,0,2.69,1.68c1.57,0,3.15,0,4.72-.06,5.3-.33,10.61-.72,15.84-1.08,1.14,0,2.2,0,3.26,0a35.49,35.49,0,0,1,4.13.25,4,4,0,0,1,3.54,3.8A4,4,0,0,1,171.09,62.18Z" transform="translate(-2.45 0)"/><path class="cls-1" d="M312.75,15.37h54v20h13.93V21.21A21.21,21.21,0,0,0,359.51,0H320a21.21,21.21,0,0,0-21.21,21.21v14.2h13.93Z" transform="translate(-2.45 0)"/><path class="cls-1" d="M397.08,42.19H284a28.28,28.28,0,0,0-28.27,28.28v113.1a28.14,28.14,0,0,0,14.62,24.61,13.14,13.14,0,0,0-.49,2.42,14,14,0,0,0,28,1.24H383.2a14,14,0,0,0,28-1.24,13.14,13.14,0,0,0-.49-2.42,28.15,28.15,0,0,0,14.63-24.61V70.47A28.28,28.28,0,0,0,397.08,42.19Zm-9.17,129q-14.34-.37-28.69-.92c-8.32-.33-16.63-.78-24.94-1.18a8.13,8.13,0,0,0-6.71,2.67,25.52,25.52,0,0,1-21.29,8.51,26.13,26.13,0,0,1-15.54-5.62c-7.65-6.26-7.69-15.89-.19-22.34,8.32-7.15,26.28-9.26,36.75,2.47a8.59,8.59,0,0,0,7.27,2.92c8.75-.45,17.51-.86,27-1.31,8.3-.24,17.28-.52,26.27-.75a7.79,7.79,0,1,1,.11,15.55Zm1.44-59.84a16.19,16.19,0,0,1-4.11.38c-13.52-.55-27-1.16-40.56-1.73-4.22-.18-8.44-.35-12.66-.38a6.9,6.9,0,0,0-6.56,3.81,11.69,11.69,0,0,1-.66,1A12,12,0,0,1,314.69,120c-8.46.06-16.92,0-25.38,0a4.14,4.14,0,0,1-4.35-4.24c0-2.38,1.91-4.06,4.52-4.06h15.76c.35,0,.71,0,1.07,0a2.08,2.08,0,1,0,.09-4.16,9.62,9.62,0,0,0-1.2,0H289.57c-2.72,0-4.58-1.66-4.61-4.11s1.9-4.23,4.65-4.23h15.76c2.09,0,3.09-.68,3.08-2.09s-1-2.07-3.12-2.07c-5.34,0-10.69,0-16,0a4.19,4.19,0,1,1-.1-8.37c8.2,0,16.39,0,24.58,0,3.11,0,6.08.59,8.44,2.74a22.85,22.85,0,0,1,3.5,4.16c1.35,2,3.09,3.39,5.53,3.46,3.24.08,6.49.08,9.72-.12,10.93-.69,21.85-1.48,32.62-2.22,2.35,0,4.53-.06,6.71,0a71,71,0,0,1,8.51.51A8.22,8.22,0,0,1,396.1,103,8.32,8.32,0,0,1,389.35,111.33Z" transform="translate(-2.45 0)"/></svg>