<?xml version="1.0" encoding="utf-8"?>
<!-- Generator: Adobe Illustrator 25.3.1, SVG Export Plug-In . SVG Version: 6.00 Build 0)  -->
<svg version="1.1" id="Layer_1" xmlns="http://www.w3.org/2000/svg" xmlns:xlink="http://www.w3.org/1999/xlink" x="0px" y="0px"
	 viewBox="0 0 200 200" style="enable-background:new 0 0 200 200;" xml:space="preserve">
<style type="text/css">
	.st0{fill:#C4C4C4;}
</style>
<path class="st0" d="M200,155.2c-1.9,7.2-7,11.5-13.3,14.6c-3.8,1.9-7.7,3.3-11.7,4.8c-2,0.8-3.4,0-4-1.9s0.2-2.8,2.2-3.7
	c4-1.6,7.9-3.3,11.8-5c1-0.5,1.9-1.1,2.8-1.7c5.4-3.6,7.3-8.4,5.8-14.8c-2.1-8.4-6.2-16.1-12-22.4c-3.4-3.8-7.2-7.2-11-10.7
	c-1.8-1.7-2.5-1.4-3.6,0.8c-3.2,6.9-7.9,12.9-13.9,17.6c-1.1,0.9-2.2,1.6-3.7,0.9s-1.8-2-1.8-3.6c0-9,0-18.1,0-27.1
	c0-1.8-0.5-2.8-2.2-3.3c-7.1-2-14.2-4-21.3-6.1c-1.5-0.4-2.2,0.1-2.5,1.7c-2.1,13.1-5.8,25.7-12.2,37.4c-1.9,3.5-4.2,6.9-6.4,10.2
	c-1.7,2.5-3.8,2.5-5.6,0.1c-5-6.8-9.1-14.3-12.1-22.2c-0.8-1.9-0.2-3.3,1.5-4s3.1-0.1,4,2c2.5,6.3,5.7,12.4,9.4,18.1
	c7.7-12,12.8-25.4,15.2-39.5c-10.2-1.2-20.4-1.2-30.6,0c0.4,2.1,0.8,4.1,1.1,6c0.5,2.2-0.3,3.6-2.2,4c-1.8,0.4-3-0.6-3.5-2.8
	c-0.6-3-1.2-6-1.7-9c-0.3-1.7-0.9-2.4-2.8-1.9c-6.7,1.9-13.3,3.8-20,5.6c-2,0.5-2.5,1.7-2.5,3.7c0.1,9,0,17.9,0.1,26.9
	c0,1.6-0.2,3-1.8,3.8s-2.7-0.1-3.9-1c-5.7-4.5-10.4-10.3-13.5-16.9c-0.3-0.8-0.7-1.5-1.2-2.2c-0.4-0.4-1.6-0.7-1.9-0.4
	C19.3,122.6,9.7,133.5,6.6,149c-1.1,5.3,0.8,9.1,5,12.1c4.7,3.3,9.9,5.8,15.4,7.4c11.2,3.7,22.7,5.6,34.3,6.9
	c15.4,1.7,30.8,2.4,46.3,2c16.2-0.1,32.5-1.5,48.5-4.2c1-0.3,2-0.1,2.9,0.4c0.8,0.8,1.3,1.9,1.2,3c-0.4,1.1-1.3,1.9-2.5,2.2
	c-6.7,1.1-13.3,2.1-20.1,2.8c-15.4,1.5-30.9,2.1-46.3,1.6c-21.2-0.5-42.3-2.3-62.8-8.2c-6.4-1.7-12.5-4.3-18.2-7.8
	c-9.1-5.9-11.4-11.7-8.8-22.2s8.2-19,15.4-26.7c3.2-3.4,6.7-6.4,10.2-9.4c2.4-2.2,5.2-2.4,8.2-1.3c0.6,0.2,1.3,0.2,1.9-0.1
	c3.2-1.7,6.4-3.5,9.5-5.3c0.5-0.3,0.9-0.8,1-1.4c0.3-3.1,2.4-5.6,5.3-6.6c7.4-2.9,15-5,22.8-6.4c2.7-0.5,5.4,0.5,7.2,2.6
	c0.6,0.6,1.3,1,2.2,1c10-1,20.1-1,30.2,0c0.8,0,1.5-0.3,2.1-0.8c1.9-2.3,4.9-3.3,7.8-2.6c7.9,1.5,15.7,3.7,23.1,6.7
	c2.8,1,4.9,3.5,5.2,6.4c0.2,0.8,0.7,1.4,1.3,1.8c2.9,1.8,5.8,3.4,8.8,5c0.7,0.3,1.5,0.4,2.2,0.2c2.6-0.8,5.1-0.9,7.2,0.8
	c11.1,8.7,20,19.1,24.9,32.5c0.8,2.7,1.5,5.5,2.1,8.3L200,155.2z M39.4,113c2,4.3,4.7,8.1,8,11.6v-16.2L39.4,113z M153.6,108.8v15.3
	l0.6,0.3l7.5-10.8L153.6,108.8z"/>
<path class="st0" d="M130.7,76.3c-0.9-0.7-2.1-1.2-2.5-2.1c-0.3-1-0.3-2.1,0.2-3c0.9-1.7,2.3-3.1,3.4-4.8c0.8-1.3,1.5-2.7,1.9-4.2
	c1-2.8,0.7-5.5-1.7-7.7c-3.2-3-4.9-6.7-4.2-11.2c0.9-5.5,3.7-9.9,7.4-13.9c1.1-1.2,2.6-1.1,3.9,0c1.2,1,1.4,2.7,0.4,3.9
	c0,0,0,0-0.1,0.1c-1.3,1.8-2.7,3.6-3.9,5.6c-0.7,1.3-1.3,2.7-1.7,4.1c-0.8,2.3-0.2,4.8,1.6,6.4c6,5.6,5.6,11.6,2.3,18
	c-1.4,2.4-3,4.7-4.7,6.9C132.4,75.3,131.6,75.9,130.7,76.3z"/>
<path class="st0" d="M72.6,59.5c-0.4,6.3-3.5,11.3-7.6,15.7c-1.2,1.2-2.7,0.9-3.8-0.2c-1.1-1-1.3-2.7-0.3-3.8c0,0,0,0,0.1-0.1
	c1.3-1.7,2.6-3.4,3.7-5.2c0.8-1.3,1.4-2.8,1.8-4.3c0.9-2.4,0.3-5.1-1.6-6.8C59.3,49.7,59,44,62.3,37.5c1.5-2.7,3.1-5.2,5.1-7.6
	c0.8-1.2,2.5-1.6,3.7-0.8c0.1,0.1,0.3,0.2,0.4,0.3c1.4,1.2,1.3,2.7,0.3,4.3c-1.9,2.8-3.6,5.6-5.1,8.6C65.4,45,66,48.1,68.3,50
	C70.9,52.6,72.8,55.5,72.6,59.5z"/>
<path class="st0" d="M106.6,19c-0.7,1.1-1.1,1.8-1.6,2.6c-1.8,2.8-3.4,5.6-4.8,8.5c-1.2,2.5-0.6,5.5,1.6,7.3
	c5.3,4.9,5.5,10.8,2.5,16.9c-1.4,2.7-3.1,5.2-5,7.6c-1.4,1.9-3,2-4.5,0.7s-1.2-2.7,0-4.5c1.8-2.5,3.3-5.1,4.7-7.8
	c1.6-2.9,0.9-6.4-1.6-8.5c-4.6-4.2-5.3-9.5-2.8-14.9c1.7-3.4,3.7-6.6,6.1-9.6c0.8-0.7,2-1,3.1-0.7C105.1,16.9,105.7,18.1,106.6,19z"
	/>
</svg>
