<?xml version="1.0" encoding="utf-8"?>
<!-- Generator: Adobe Illustrator 25.3.1, SVG Export Plug-In . SVG Version: 6.00 Build 0)  -->
<svg version="1.1" id="Layer_1" xmlns="http://www.w3.org/2000/svg" xmlns:xlink="http://www.w3.org/1999/xlink" x="0px" y="0px"
	 viewBox="0 0 200 200" style="enable-background:new 0 0 200 200;" xml:space="preserve">
<style type="text/css">
	.st0{fill:#C4C4C4;}
</style>
<path class="st0" d="M1.1,69.4c0.1-13.7,4.4-26,11.2-37.7c5.3-9,11.7-17,20.8-22.5c16.7-10,33.9-11,51.3-2.5
	c16.3,7.9,28.9,19.7,36.2,36.6c3.5,8.1,5,16.6,6.5,25.2c1.3,7.4,2.6,14.9,4.3,22.2c1.4,5.6,4.1,10.9,7.8,15.4
	c3.7,4.3,5.2,9.9,4.3,15.5c0,0.8,0.3,1.5,0.9,2.1c5.9,4.8,11.9,9.5,18,14.1c0.9,0.5,1.9,0.6,2.8,0.4c6.1-1.3,12.2-1.6,18.3,0.2
	c10.1,3,16.8,13.4,14.9,23.5c-1.2,6.8-5.9,10.4-12.1,12.4c-1.6,0.5-2.1,1.1-2.1,2.9c0.3,10-7.8,19.2-18,20.5
	c-13.1,1.7-23.9-6.8-25.4-20c-0.3-3.2-0.3-6.5-0.1-9.7c0.1-0.9-0.3-1.8-1.1-2.2c-6.9-4.2-13.7-8.6-20.5-12.8
	c-0.5-0.4-1.1-0.5-1.8-0.4c-8.4,3-16.9,1.9-24.8-1.4c-14.2-5.9-28.2-12.3-42.2-18.7c-6.7-3.1-13.4-6.2-19.4-10.7
	c-10.8-8.1-19.9-17.5-25.4-30C2.6,84.7,1,77.1,1.1,69.4z M60,10.5c-11,0.2-21.5,4.8-29.3,12.6c-9.2,9-14.9,20.3-18.3,32.6
	c-2.5,9.2-2.8,18.4,0.2,27.5c5.3,16.3,16.9,27.4,31.3,35.4c11.5,6.4,23.7,11.5,35.6,17c7.2,3.3,14.3,6.7,22.2,8.3
	c5.8,1.2,11.5,1.2,16.6-2.6c2.1-1.6,13.1-14.7,14.4-17c2.3-4.4,2.2-8.5-1.1-12.5c-4.7-5.6-7.9-12.2-9.6-19.2c-2-9-3.7-18.1-5.1-27.2
	c-3-19.8-12.5-35.3-29.4-46.1C79.4,14,70.7,10.6,60,10.5z M139.4,131.8l-12.5,14.7l19.7,12.4c4.3,2.7,4.5,3.3,3.7,8.3
	c-0.7,4.8-0.7,9.5,1.3,14c2.7,6,9.7,8.9,15.9,6.4c4.7-1.8,9.3-7.1,6.4-14.6c-1.3-3.3,0.7-5.9,4.2-6.6c2.8-0.5,5.5-1.3,8.1-2.4
	c2.3-0.9,3.2-3.1,3-5.6c-0.2-5.2-3.8-9.7-8.9-11.1c-4.8-1.2-9.9-1-14.6,0.7c-2.8,1-5.9,0.4-8-1.7
	C151.7,141.3,145.6,136.7,139.4,131.8z"/>
<path class="st0" d="M59.8,22.1c9.5,0,15.8,2,21.6,5.3c2.3,1.2,3.2,4.1,1.9,6.4c-1.2,2.3-4.1,3.2-6.4,1.9l0,0
	c-4.6-2.5-9.3-4.2-14.6-4.2c-5.3,0-10.5,1.9-14.4,5.5c-2.5,2.2-5.4,2.2-7.2,0.2S39,32.3,41.5,30C47.5,24.6,54.5,22.2,59.8,22.1z"/>
<path class="st0" d="M84.5,40.9c0-3.2,2.6-5.8,5.8-5.8c3.2,0,5.8,2.6,5.8,5.8l0,0c0,3.1-2.5,5.7-5.7,5.8
	C87.2,46.7,84.6,44.1,84.5,40.9C84.5,40.9,84.5,40.9,84.5,40.9z"/>
</svg>
