<?xml version="1.0" encoding="utf-8"?>
<!-- Generator: Adobe Illustrator 25.3.1, SVG Export Plug-In . SVG Version: 6.00 Build 0)  -->
<svg version="1.1" id="Layer_1" xmlns="http://www.w3.org/2000/svg" xmlns:xlink="http://www.w3.org/1999/xlink" x="0px" y="0px"
	 viewBox="0 0 200 200" style="enable-background:new 0 0 200 200;" xml:space="preserve">
<style type="text/css">
	.st0{fill:#C4C4C4;}
</style>
<path class="st0" d="M157.1,83.5l-5.8,1.7c-6.5-19-18.9-31.7-38.4-36.7c-14.9-3.8-29-1.2-41.9,7.2C45.4,72.5,39.4,108,58.1,132.2
	c19.3,25.1,52.7,26.1,72.6,11c-4.1-2.2-8.6-3.6-13.3-4.1c-7.6-1-15.3,0.3-22.1,3.8c-2.8,1.5-6,1.8-9.1,0.9
	c-5.2-1.6-7.4-6.4-5.5-11.4c0.2-0.4,0.3-0.8,0.7-1.7c-1.7-0.1-3.4-0.1-5.1,0.1c-4.9,1-8.9-0.2-12.4-3.9c-1.4-1.4-3-2.5-4.8-3.3
	c-3.3-1.7-5.6-4.8-6.2-8.5c-0.4-2.2-1.1-4.4-2-6.4c-1.8-3.4-1.8-7.5,0-10.8c1-2.1,1.7-4.3,2.1-6.6c0.6-4,3.3-7.4,7.1-8.8
	c-0.1-3-0.5-5.8-0.1-8.3c1.1-6.8,7.1-11.6,13.9-11.4c1.2,0.2,2.4-0.4,2.8-1.5c3.3-6.9,11.6-9.8,18.5-6.4c0.7,0.3,1.3,0.7,1.9,1.1
	c0.8,0.6,1.9,0.7,2.8,0.2c15.7-7,34.1,0,41.2,15.7c2,4.5,2.9,9.4,2.7,14.4c-0.3,7.6-3.4,14.7-8.7,20.1c-0.6,0.5-1.2,1-1.9,1.4
	c6.4,2.1,12.6,3.5,17.6,8.2c2.5-7.9,3.1-16.3,1.7-24.5l5.8-1c5.1,23.5-7.9,55.2-38.8,66C88.3,167,53.9,149.8,43.7,118
	c-10.1-31.3,7.9-65.6,39.4-74.9c31.3-9.4,64.3,8.3,73.7,39.6C156.9,83,157,83.3,157.1,83.5z M86.3,82.7
	C86.4,82.7,86.3,82.7,86.3,82.7c-5.1,8.3-13.2,10.2-21.2,5c-0.3-0.2-0.9-0.5-1.2-0.4c-2.1,1-4.3,2-4.8,4.8c-0.6,2.8-1.5,5.6-2.6,8.3
	c-0.7,1.7-0.7,3.6,0,5.2c1.1,2.8,2,5.6,2.7,8.5c0.4,1.6,1.3,2.9,2.7,3.8c2.5,1.7,5,3.4,7.3,5.3c1.1,1.1,2.7,1.6,4.2,1.4
	c2.1-0.2,4.3-0.4,6.4-0.4c1.4,0,2.8,0.4,4.2,0.4c1.7,0.2,3.3-1.1,3.5-2.8c0.3-4.1,2.3-7.4,5.9-9c3.2-1.3,5.6-3.9,6.5-7.2
	c0-0.1,0-0.1,0.1-0.2c0.9-1.6,0.7-3.1,0-4.8c-1.1-2.9-1.8-5.9-2.9-8.8c-0.4-1.2-1.1-2.3-2-3.1C92.5,86.7,89.4,84.8,86.3,82.7z
	 M100,84.2c1.8-9.2,8.2-14,16-11.9c6.6,1.9,10.5,8.7,8.7,15.4c-0.1,0.2-0.1,0.4-0.2,0.6c-1.1,3.3-3.5,6.1-6.7,7.4
	c-4.8,2.1-9.3,1.1-13.6-1.8c2,4.5,4.6,8.8,2.1,13.5c5.6-0.4,11.1-0.7,16.6-1.1c1.2-0.1,2.4-0.4,3.4-1c11.6-7.5,14.8-23,7.3-34.6
	c-4.2-6.4-11.1-10.6-18.8-11.2c-4.3-0.4-8.5,0.4-12.4,2.2c2.3,9.1,0.4,13.5-8.4,19L100,84.2z M120.4,112.5c-8,0-15.9,1.9-23,5.4
	c-1.2,0.6-2.2,1.5-3,2.6c-0.8,0.9-0.7,2.2,0.2,2.9c0.4,0.4,0.9,0.5,1.4,0.5c1.4,0.2,2.8,0,4.1-0.6c13.6-6.3,27.1-6.3,40.6,0
	c1.2,0.5,2.6,0.7,3.9,0.6c2-0.2,2.8-1.9,1.6-3.6c-0.8-1.1-1.8-2-3-2.6C136.2,114.3,128.3,112.5,120.4,112.5z M136.1,138.3
	c0.9-0.7,2.4-1.3,2.8-2.3c0.3-0.8-0.5-2.5-1.4-3.1c-1.8-1.3-3.7-2.3-5.8-3c-10-3.5-19.9-5.9-30.1-0.3c-1.8,1-4.4,0.8-6.6,0.6
	c-2.5-0.2-7.2,1.9-8.3,4.1c-0.9,1.7-0.2,3.3,1.7,3.5c1.5,0.1,3.1-0.2,4.5-0.8c13.2-6,26.4-6.1,39.7,0
	C133.5,137.5,134.5,137.8,136.1,138.3z M89.3,59.3c-4.3,0-7.8,3.4-7.9,7.7s3.4,7.8,7.7,7.9c4.3,0,7.8-3.4,7.9-7.7c0,0,0,0,0,0
	C97.1,62.9,93.6,59.4,89.3,59.3L89.3,59.3z M74.2,84.3c2.7-0.2,5.2-1.8,6.4-4.2c0.6-0.6,0.5-1.6-0.2-2.2c-0.1-0.1-0.1-0.1-0.2-0.2
	c-2.4-1.9-4.1-4.6-4.6-7.7c-0.2-1.2-0.8-1.4-1.9-1.4c-4.3,0-7.8,3.5-7.8,7.8C65.9,80.8,69.4,84.3,74.2,84.3L74.2,84.3z M112.7,90.6
	c3.4,0,6.2-2.8,6.2-6.3c0-3.4-2.8-6.2-6.3-6.2c-3.4,0-6.2,2.8-6.2,6.3c0,0,0,0,0,0.1C106.5,87.9,109.3,90.6,112.7,90.6L112.7,90.6z"
	/>
<path class="st0" d="M156.4,15.7h6v31.1h9.4v-31h6.3v31h9.3v-31h6.3v50.4c0,6-2.4,9.4-8,11.6c-0.6,0.4-1,1.1-1,1.9
	c0.1,6.8,0.3,13.5,0.5,20.3c0.5,14,1,28.1,1.4,42.2c0,0.4,0,0.9,0,1.5h-6.2c-0.7-21.7-1.3-43.4-2-65.3h-6.8c0,0.7-0.1,1.3-0.1,2
	c-0.9,29-1.8,57.9-2.6,86.9c0,1.3-0.1,2.6-0.1,3.9c-0.1,4.1,2.5,7,6.2,7s6.4-2.9,6.3-7.1c-0.2-6.2-0.4-12.5-0.6-18.7
	c0-0.6,0-1.3,0-2.1h6.2c0.2,7.7,0.7,15.4,0.4,23c-0.2,6.6-6.3,11.5-12.9,11.2c-6.6-0.3-11.8-5.7-11.8-12.3
	c0.2-10.8,0.6-21.6,0.9-32.4c0.6-20,1.2-40,1.8-59.9c0-1.3-0.4-1.7-1.6-2.1c-4.4-1.4-7.4-5.4-7.4-10c-0.1-17,0-34,0-51
	C156.4,16.2,156.4,16,156.4,15.7z M162.6,53.2c0,4.8-0.1,9.4,0,14c0,2.5,2,4.6,4.5,4.6c0.1,0,0.2,0,0.3,0c5.1,0.1,10.1,0.1,15.2,0
	c3.1,0,4.9-2,4.9-5.1c0-3.4,0-6.9,0-10.3v-3.2L162.6,53.2z"/>
<path class="st0" d="M14.8,103.2h6.2c0,0.8,0,1.5,0,2.2l-1.9,61.5c0,1.5-0.1,3-0.1,4.5c0,3.9,2.7,6.8,6.3,6.7c3.4,0,6.2-2.9,6.2-6.3
	c0-0.1,0-0.2,0-0.4c-0.3-10.2-0.6-20.4-0.9-30.6c-0.6-19.9-1.2-39.8-1.8-59.7c0-1,0-2,0-3.2H22l-0.6,18.8h-6.2c0-0.8,0-1.5,0-2.2
	c0.2-6.4,0.4-12.8,0.5-19.1c0.1-0.8-0.1-1.6-0.6-2.3c-4.7-5.3-7-11.7-8-18.5c-1.4-9.3-0.6-18.3,3.4-26.9c1.2-2.4,2.6-4.7,4.4-6.7
	c6.2-7.2,15.6-7.1,21.8,0.1c4.3,5,6.5,10.9,7.5,17.3c1.5,9.5,0.9,18.8-3.3,27.7c-1.3,2.7-3.4,5-5.1,7.6c-0.5,0.6-0.8,1.4-0.9,2.2
	c0.9,30.4,1.8,60.8,2.7,91.1c0.2,2.5,0.1,4.9-0.2,7.4c-1.3,6.7-7.8,11.1-14.5,9.8c-5.9-1.1-10.1-6.3-10-12.3
	c0.2-10.3,0.6-20.6,0.9-30.8c0.3-11.8,0.7-23.5,1.1-35.3C14.9,104.9,14.8,104.1,14.8,103.2z M38.9,46.9c-0.4-3-0.6-6.1-1.1-9.1
	c-0.9-4.8-2.6-9.4-6.1-13c-3.8-3.9-8-4-11.7,0c-1.8,2-3.3,4.3-4.3,6.9c-3.8,9.3-3.9,19.6-0.5,29c1.2,3.1,2.9,6,5.2,8.5
	c3.3,3.7,7.4,3.6,10.9,0c1.5-1.5,2.8-3.3,3.7-5.2C37.8,58.7,38.7,52.9,38.9,46.9z"/>
<path class="st0" d="M158.6,151.6c-30.1,34.7-85.3,35.8-116.8,0l4.6-4c14.6,15.8,32.4,24.2,53.8,24.2s39.3-8.4,53.9-24.2
	L158.6,151.6z"/>
<path class="st0" d="M152.1,41.8l-3.8,4.2c-32.2-24.2-64-24.1-96.3,0l-3.7-4.2C74.9,17,120.9,13.7,152.1,41.8z"/>
<path class="st0" d="M83.2,94.3l9.3,6.2l-3.4,5.2l-9.4-6.2L83.2,94.3z"/>
<path class="st0" d="M72,97.9c-1.1,3.2-2.1,6.2-3.1,9.3l-5.9-2c1-3.1,2-6.2,3.1-9.3L72,97.9z"/>
<path class="st0" d="M76.2,118.6l-2-5.9l9.3-3.1l2,5.9L76.2,118.6z"/>
</svg>
