<?xml version="1.0" encoding="utf-8"?>
<!-- Generator: Adobe Illustrator 25.3.1, SVG Export Plug-In . SVG Version: 6.00 Build 0)  -->
<svg version="1.1" id="Layer_1" xmlns="http://www.w3.org/2000/svg" xmlns:xlink="http://www.w3.org/1999/xlink" x="0px" y="0px"
	 viewBox="0 0 200 200" style="enable-background:new 0 0 200 200;" xml:space="preserve">
<style type="text/css">
	.st0{fill:#C4C4C4;}
</style>
<path class="st0" d="M53.4,68.7c-2.1,0-4,0-6,0c-2.6,0-3.7-1.2-3.7-3.7c0-5.7,0-11.5,0-17.2c0-3.1,1-4.1,4.1-4.1h58.4v-2.2
	c0-10.4,0-20.7,0-31.1c0-3.3,1-4.3,4.3-4.3c3.5,0,7,0,10.6,0c2.8,0,3.9,1.1,3.9,3.9c0,10.4,0,20.8,0,31.2v2.3h27
	c3.2,0,4.2,1,4.2,4.2c0,5.6,0,11.2,0,16.8c0,2.9-1.1,4-4,4c-1.8,0-3.6,0-5.7,0c-0.4,4.1-0.9,8.2-1.3,12.2
	c-1.5,15.3-3.1,30.6-4.6,45.8c-1.3,13.7-2.7,27.3-4.1,41c-0.8,7.6-1.5,15.3-2.3,22.9c-0.2,2.2-1.4,3.1-4,3.1H70.1
	c-3.4,0-4.2-0.7-4.5-4.1c-2.4-24.1-4.9-48.2-7.3-72.2C56.6,101.3,55.1,85.1,53.4,68.7z M62,92c3.2,31.6,6.3,63.5,9.5,95.3h56.9
	c0.8-8.2,1.6-16.2,2.4-24.2c1.2-12.4,2.5-24.9,3.7-37.3c1.2-12.3,2.4-24.6,3.7-36.9c0.2-2-0.4-2.7-2.2-3.2c-12-3.4-23.7-3-34.9,2.8
	c-7,3.7-14.8,5.5-22.8,5.2C73,93.4,67.6,92.6,62,92z M149.9,50.1H50.1v12.3h99.8L149.9,50.1z M140.3,68.8H59.7
	c0.5,4.7,1,9.3,1.3,13.9c0,1.2,0.8,2.2,2,2.4c12.3,3.6,24.4,3.5,36-2.6c6.9-3.5,14.5-5.3,22.2-5.2c6.1-0.1,12.1,0.8,17.9,2.7
	C139.5,76.3,139.9,72.6,140.3,68.8L140.3,68.8z M112.6,12.5v31h6v-31H112.6z"/>
<path class="st0" d="M84.2,128.2c-1.9,0-3.8-0.2-5.6-0.5c-3.9-0.9-6.7-4.3-6.7-8.3c-0.1-2.5-0.1-5.1,0-7.6c0.2-4.8,4-8.6,8.8-8.7
	c2.5-0.1,5-0.1,7.4,0c4.8,0.1,8.6,4,8.8,8.8c0.1,2.4,0,4.8,0,7.2c0,5-4,9-9,9c0,0-0.1,0-0.1,0c-1.2,0-2.3,0-3.5,0V128.2z
	 M78.1,115.5v0.2c0,6.1,0,6.1,6.2,6.1s6.3,0,6.3-6.3s0-6.2-6.3-6.2S78.1,109.3,78.1,115.5z"/>
<path class="st0" d="M99.9,140.4c0-1.8,0.2-3.6,0.4-5.4c0.9-4,4.4-6.9,8.6-6.9c2.4-0.1,4.8-0.1,7.2,0c4.9,0.1,8.8,4,8.9,8.9
	c0.1,2.5,0.1,5,0,7.4c-0.1,4.8-4,8.6-8.8,8.7c-2.5,0.1-4.9,0.1-7.4,0c-4.9-0.1-8.8-4.1-8.8-8.9c0-1.2,0-2.5,0-3.7L99.9,140.4z
	 M118.7,140.7v-0.2c0-6.1,0-6.1-6.2-6.1s-6.3,0-6.3,6.3s0,6.2,6.3,6.2S118.7,146.9,118.7,140.7z"/>
<path class="st0" d="M90.5,181.4c-1.8,0-3.6-0.2-5.4-0.4c-4-0.9-6.9-4.4-6.9-8.5c-0.1-2.5-0.1-4.9,0-7.4c0.1-4.8,4-8.6,8.8-8.7
	c2.5-0.1,5-0.1,7.4,0c4.8,0.1,8.6,4,8.8,8.7c0.1,2.5,0.1,4.9,0,7.4c-0.1,4.9-4,8.8-8.9,8.8c-1.2,0-2.5,0-3.7,0L90.5,181.4z
	 M90.5,175c1,0,2.1,0,3.1,0c2.2-0.1,3.2-1,3.3-3.2s0.1-4.2,0-6.2c0.1-1.5-1-2.9-2.6-3c-0.2,0-0.3,0-0.5,0c-2.1,0-4.2,0-6.2,0
	s-3.1,1.1-3.2,3.1c0,1.1,0,2.2,0,3.3C84.4,175,84.4,175,90.5,175L90.5,175z"/>
<path class="st0" d="M125.1,96.7v-6h6v6H125.1z"/>
<path class="st0" d="M121.8,103.2v6h-6v-6H121.8z"/>
<path class="st0" d="M131.2,112.6v6h-6.1v-6H131.2z"/>
<path class="st0" d="M93.6,143.7h-6v-6.1h6V143.7z"/>
<path class="st0" d="M75.1,143.8h6v6h-6V143.8z"/>
</svg>
