<?xml version="1.0" encoding="utf-8"?>
<!-- Generator: Adobe Illustrator 25.3.1, SVG Export Plug-In . SVG Version: 6.00 Build 0)  -->
<svg version="1.1" id="Layer_1" xmlns="http://www.w3.org/2000/svg" xmlns:xlink="http://www.w3.org/1999/xlink" x="0px" y="0px"
	 viewBox="0 0 200 200" style="enable-background:new 0 0 200 200;" xml:space="preserve">
<style type="text/css">
	.st0{fill:#C4C4C4;}
</style>
<path class="st0" d="M0,57.3c8.1-10.6,16.4-20.9,26-30.2c0.5-0.7,0.8-1.5,0.7-2.3c-0.1-1.7-0.6-3.3-0.8-5c-0.4-2.8,1.4-4.5,4.1-3.6
	c2.3,0.7,4.4,1.8,6.7,2.6c0.8,0.3,1.7,0.2,2.4-0.2c11.2-7.1,23.3-9.8,36.5-7.2c1.7,0.3,3.2,0.9,3.4,2.9s-1.2,2.7-2.7,3.4
	C70.5,20.3,64.8,23.2,59,26c-0.6,0.3-1.1,0.6-1.7,1c4,5.5,7.8,10.8,11.7,16.2c2.1,2.7,5.1,4.7,8.4,5.6c8.9,2.9,18,3.8,27.2,4.2
	c15.6,0.8,31.2,1.1,46.7,2c10.2,0.6,17.1,1.4,27.8,7.5c0.6-3.9,3.3-6.2,6.1-8.6c2.6-2.2,3-5.1,1.4-8.1l-0.2-0.3
	c-1.5-2.6-1.4-4.1,0.2-5.1s2.9-0.5,4.8,1.7c3.1,3.5,5.6,7.6,7.1,12c2.5,7.9,0.2,15.4-6.5,20.4c-1.4,1-1.5,1.8-1,3.4
	c2.7,7.5,1.9,15.1,0.1,22.6c-1.2,5-2.5,10.1-3.4,15.2c-1.1,6.1,0.6,12.5,4.8,17.1c4.1,4.6,3.4,9.3,2.6,14.4
	c-2,12.9-3.9,25.8-5.8,38.7c-0.4,2.8-1.3,3.6-4.1,3.6c-4.5,0-9,0-13.4,0c-3.6,0-4.8-1.9-3.3-5.2c0.7-1.6,1.2-3.2,2-4.6
	c3.9-7.1,5.1-14.9,6-22.8c0.5-4.2,1.1-8.5,1.8-12.7c0.3-1.1-0.2-2.3-1.2-2.9c-9.4-6.5-17.9-14-24.4-23.5c-0.9-1.2-1.7-0.8-2.7-0.5
	c-10.9,3.1-22.2,5-33.5,5.8c-0.3,0-0.7,0-1,0c-1.9,0-3.1-1-3.3-2.6c-0.1-1.6,1.1-3,2.7-3.1c0,0,0.1,0,0.1,0c2.1-0.3,4.2-0.3,6.2-0.6
	c9.3-1,18.5-2.7,27.4-5.2c-0.6-1.4-1.2-2.7-1.6-4.1c-0.6-1.9,0.1-3.4,1.6-4s2.9,0,3.7,1.9c4.9,11.5,13.5,19.9,23,27.5
	c2.3,1.8,4.7,3.5,7.1,5.1c1.5,0.8,2.3,2.6,1.9,4.3c-1.4,9.4-2.7,18.9-4,28.4c-0.1,0.4-0.1,0.9-0.1,1.6l4.9,1.6
	c0.6-4,1.2-7.8,1.8-11.6c1-6.7,2-13.5,2.9-20.2c0.2-1.1-0.1-2.2-0.6-3.2c-7.4-9.5-9.3-20-6-31.6c1.6-5.2,2.7-10.6,3.4-16
	c1.2-12.8-4.9-22-16.9-26.7c-7.3-2.8-14.9-3.4-22.6-3.8c-14.3-0.7-28.7-1-43-1.7c-9.5-0.5-19-1.5-28.2-4.4
	c-5.2-1.5-9.8-4.8-12.9-9.2c-3.5-4.9-7-9.8-10.3-14.5c-1.8,0.6-3.3,1.6-4.7,1.5c-1.7-0.2-3.3-0.8-4.7-1.9c-3.3-3-7.1-5.4-11.2-7.1
	c0.9,2.6,1.5,4.9,2.5,7c1.1,2.5,1,4-0.6,5s-3.1,0.2-4.5-2c-0.1-0.2-0.2-0.3-0.5-0.7c-2.5,2.6-5.1,5.1-7.4,7.8
	C16.7,45.9,12,51.7,7.2,57.4c-0.8,0.8-1,2.1-0.5,3.2c0.6,1.6,1.1,3.2,1.6,4.8c0.3,1.5,1.7,2.5,3.2,2.4c8.9-0.4,17.8-1.2,25.8-5.7
	c2.1-1.3,4.1-2.9,5.8-4.8c1.7-1.6,3.1-2.1,4.6-0.9s1.4,2.9-0.1,4.6c-1.3,1.6-2.8,3-4.2,4.5c3.6,9.2,6.9,18.5,10.9,27.6
	c3.7,8.5,9.4,15.5,18,19.8c0.2,0.1,0.4,0.3,0.7,0.3c4.2,0.8,5.5,3.7,6.3,7.6c1.4,6.7,3.2,13.4,4.8,20.1c0.3,1.3,0.5,2.7,0.5,4
	c0,8,0,16,0,24v3l3.7,1.3c0.2-3.4,0.5-6.7,0.7-10c0.9-16.3,1.9-32.5,2.8-48.8c0.1-2.3,1.3-3.6,3.1-3.5s2.8,1.5,2.8,3.8
	c0,0.7,0,1.4,0,2.2c1.5,0.1,2.9,0.2,4.3,0.4c1.9,0.2,2.9,1.4,2.8,3s-1.4,2.8-3.4,2.8c-1.3,0-2.7-0.2-4.2-0.3
	c-0.2,3.3-0.4,6.5-0.6,9.7c-1,17.1-1.9,34.1-2.9,51.2c-0.3,5.3-0.7,5.7-6,5.7c-3.9,0-7.8,0-11.7,0c-3.5,0-4.7-1.9-3.4-5.1l0.2-0.4
	c2-4.6,4.7-9,5.7-13.8s0-10.1,0.4-15.1c0.9-10.7-2.6-20.6-4.7-30.8c-0.4-2.8-2.2-5.3-4.9-6.4c-9.6-4.6-15.8-12.5-20.1-22
	C46,89,43.6,81.9,40.9,75c-0.8-2.2-1.8-4.3-3-7.1c-1.3,1.4-2.5,2.2-3.1,3.3c-3,5.6-7.1,10.6-12.2,14.4c-2.9,2.2-4.5,1.7-6-1.6
	c-1.3-3.1-2.8-6.2-4.3-9.2c-0.4-0.6-1-1-1.7-1.2c-3.7-0.4-6.9-3-8-6.6c-0.8-2.6-1.8-5.2-2.7-7.9V57.3z M192.6,54.7
	c-1.5,1.7-3.2,3.3-4.9,4.8c-4,3.2-4,7.5,0,10.8C193.4,66.4,195.2,60.4,192.6,54.7z M47.6,26.2L64,16.3c-7.3,0.4-14.3,2.6-20.5,6.4
	L47.6,26.2z M184.5,179.5l-6.6-2.2l-2.6,6.1h8.5L184.5,179.5z M87.5,183.4c0.5-4,0.5-4-3.2-5.3l-2.5-0.8l-2.6,6.1L87.5,183.4z
	 M21.2,79.5l6.2-7.1l-0.4-0.4l-8.7,1.3L21.2,79.5z"/>
<path class="st0" d="M30.3,45.9c-1.6-0.1-2.8-1.3-2.9-2.9c0-1.6,1.2-2.9,2.8-2.9c1.6-0.1,2.9,1.2,3,2.7c0,0.1,0,0.1,0,0.2
	C33.2,44.6,31.9,45.9,30.3,45.9z"/>
</svg>
