<?xml version="1.0" encoding="utf-8"?>
<!-- Generator: Adobe Illustrator 25.3.1, SVG Export Plug-In . SVG Version: 6.00 Build 0)  -->
<svg version="1.1" id="Layer_1" xmlns="http://www.w3.org/2000/svg" xmlns:xlink="http://www.w3.org/1999/xlink" x="0px" y="0px"
	 viewBox="0 0 200 200" style="enable-background:new 0 0 200 200;" xml:space="preserve">
<style type="text/css">
	.st0{fill:#C4C4C4;}
</style>
<path class="st0" d="M176.6,200H23.8c-0.1-0.1-0.2-0.2-0.3-0.3c-5.3-1.4-8.1-4.9-9.3-10.1c-1.6-7.2-3.3-14.4-4.9-21.7
	c-0.2-1.2-1-2.2-2.1-2.7c-4.1-1.7-6.8-5.7-6.8-10.1c-0.2-2.9-0.2-5.9,0-8.8c0-4.4,2.7-8.3,6.7-10c1.2-0.5,2.1-1.7,2.3-3
	c1.6-7.2,3.3-14.3,4.9-21.5s5.7-10.4,13-10.4h43.3c-1.6-1.9-3-3.3-4.3-4.9c-8.1-10.7-12.7-23.7-12.9-37.1
	c-0.3-9.3,1.7-18.1,8.1-25.2c8.7-9.5,19.8-11.9,32.2-10.4c0.6,0.1,1.2,0.2,2,0.3c-0.1-0.6-0.2-1.1-0.3-1.5c-0.1-0.5-0.3-1-0.5-1.5
	c-2-5.1-6.2-9.1-11.3-11c-2.5-1-3.4-3.1-2.6-5.1c0.7-2,2.8-3,4.8-2.3C86,2.9,86.3,3,86.5,3.2c3.1,1.5,6,3.2,8.8,5.3
	c2.2,1.8,3.8,4.3,5.8,6.5c0.2-0.3,0.5-0.6,0.7-1c3-5,7.6-8.9,13.1-11c3.4-1.3,6.9-2,10.4-3h3.5c2.5,1.2,3.1,3.2,2.7,5.8
	c-0.7,4.6-2.2,9.1-4.5,13.2c-1.2,1.9-2.5,3.8-3.7,5.6c0.1,0.1,0.1,0.2,0.1,0.2c0.5,0.2,1,0.4,1.5,0.5c10,3.2,16.7,9.7,20.1,19.6
	c2.6,7.5,2.6,15.1,1.3,22.8c-2,12.2-6.6,23.2-15.1,32.3c-0.4,0.4-0.7,0.8-1.2,1.5h2.4c13.8,0,27.6,0,41.3,0c6.6,0,10.9,3.5,12.4,9.9
	c1.7,7.5,3.4,15,5.1,22.4c0.2,1.1,0.9,2,1.9,2.4c4.2,2,6.8,5.1,6.6,10.1c-0.1,2.9-0.1,5.9,0,8.8c0.2,5-2.4,8.2-6.6,10.2
	c-1,0.4-1.7,1.3-1.9,2.4c-1.7,7.5-3.4,15.1-5.1,22.6c-0.8,4.5-4.2,8.2-8.7,9.3C177,199.7,176.8,199.8,176.6,200z M100.2,101.6
	c3.2,0,6.4-0.1,9.6,0c6,0.3,11.7-2.2,15.5-6.8C135.4,83.5,139.7,70.1,139,55c-0.3-6.1-2.3-11.7-6.7-16.2c-7-7.1-20-9.5-29.2-5.6
	c-1.6,0.7-3.1,1.3-4.8,0.4c-4.8-2.4-9.9-2.7-15.2-1.9C71.4,33.4,63.7,40.4,62,51.4C59.6,67.1,64,81,73.7,93.3
	c4.5,5.7,10.4,8.9,18,8.3C94.5,101.4,97.3,101.6,100.2,101.6z M183.2,135.2c0-0.3,0-0.7-0.1-1c-1.6-7.1-3.2-14.2-4.9-21.3
	c-0.6-2.7-1.9-3.5-5-3.5H27.1c-3.3,0-4.5,1-5.2,4.2c-0.9,3.9-1.8,7.8-2.7,11.8c-0.7,3.2-1.4,6.4-2.2,9.8h56c3.2,0,4.2,0.8,5.3,3.8
	c0.4,1.3,0.9,2.7,1.3,3.9h41.2c0.4-1.2,0.8-2.4,1.2-3.5c1.2-3.6,2-4.2,5.8-4.2L183.2,135.2L183.2,135.2z M17.2,166.5
	c0,0.3,0,0.6,0,0.9c1.6,7,3.2,14.1,4.8,21.1c0.7,2.8,1.9,3.7,5.1,3.7h146.1c3.4,0,4.5-0.9,5.3-4.2c0.9-3.9,1.8-7.9,2.7-11.8
	c0.7-3.2,1.4-6.4,2.2-9.7H17.2z M100,158.6h74.9c4.3,0,8.6,0,12.9,0c2.9,0,4.4-1.5,4.5-4.5c0-1.9,0-3.8,0-5.7c0-4.2-1.2-5.5-5.4-5.5
	H133c-3.9,0-3.9,0-5.2,3.8c-1.1,3.3-2.1,4-5.5,4c-13.8,0-27.5,0-41.3,0c-6.8,0-7,0.2-9-6.4c-0.4-1.2-1-1.4-2.1-1.4
	c-4.6,0.1-9.1,0-13.7,0H13.1c-3.4,0-4.8,1.4-4.9,4.9c0,1.7,0,3.4,0,5.1c0,4.5,1.2,5.7,5.7,5.7L100,158.6z M105.7,24
	c3.4-0.5,6.9-0.2,9.7-3c3.5-3.3,6.1-7.6,7.3-12.3C114.8,9.7,107.2,16.5,105.7,24z"/>
<path class="st0" d="M131.8,57.6c-0.6,1.3-0.9,2.9-1.9,3.8c-1.1,0.7-2.4,1-3.7,0.8c-1.6-0.2-2.4-1.7-2.6-3.3
	c-0.2-1.4-0.2-2.8-0.4-4.3c-0.6-4.2-2.7-6.4-6.8-7.2c-1.5-0.2-3-0.4-4.4-0.5c-2.4-0.2-4-1.8-4-3.9c0-2.2,1.8-3.9,4-3.9
	c0.1,0,0.2,0,0.3,0c6.7,0.2,12.8,1.7,16.5,8C130.3,49.6,131.3,53.6,131.8,57.6z"/>
<path class="st0" d="M107.9,126.2c-4.9,0-9.7,0-14.6,0c-3,0-4.8-1.6-4.8-4s1.9-3.8,4.7-3.8c9.8,0,19.6,0,29.4,0c2.9,0,4.8,1.6,4.8,4
	s-1.9,3.8-4.7,3.8C117.8,126.2,112.8,126.2,107.9,126.2z"/>
<path class="st0" d="M76.8,118.4c2.1,0,3.9,1.8,3.8,3.9c0,2.1-1.8,3.9-3.9,3.8s-3.9-1.8-3.8-3.9c0,0,0,0,0,0
	C73,120.1,74.7,118.4,76.8,118.4z"/>
</svg>
