<?xml version="1.0" encoding="utf-8"?>
<!-- Generator: Adobe Illustrator 25.3.1, SVG Export Plug-In . SVG Version: 6.00 Build 0)  -->
<svg version="1.1" id="Layer_1" xmlns="http://www.w3.org/2000/svg" xmlns:xlink="http://www.w3.org/1999/xlink" x="0px" y="0px"
	 viewBox="0 0 200 200" style="enable-background:new 0 0 200 200;" xml:space="preserve">
<style type="text/css">
	.st0{fill:#C4C4C4;}
</style>
<path class="st0" d="M200,113c-1.1,4.4-1.7,9-3.4,13.1c-6.7,16.2-18.9,26.1-36.3,28.9c-5.2,0.9-10.5,0.8-15.7,1.2
	c-10.4,0.8-20.4,3.8-30.1,7.6c-8.7,3.4-17.3,7.1-26.2,10c-13.9,4.7-28,5.3-42.2,1.1c-12.5-3.7-23.5-11.1-31.6-21.3
	c-9.8-12.2-14.4-26.3-14.2-41.9c0.1-10.3-0.2-20.7,0.4-31c0.8-13.7,6.1-25.7,14.9-36.1c9.1-11,21.6-18.5,35.6-21.3
	c4.6-1,9.4-1.5,14.1-1.5c22.7,0.1,45.2,1.9,67.4,6.5c14.6,3.1,28.9,7.3,42,14.9c8.4,4.9,15.5,10.9,20.4,19.4c2.4,4.2,4,8.9,4.6,13.8
	c0.1,0.6,0.2,1.3,0.4,1.9V113z M192.1,108c-2.2,2.5-4.1,5-6.3,7.1c-1,1-2.3,1.5-3.7,1.5c-1.3-0.3-2.4-1.1-3-2.3
	c-0.9-1.4-0.2-3,0.9-4.3c2.3-2.8,4.9-5.5,6.7-8.6c8.4-14.4,8.4-32.8-7.9-45.9c-9.1-7.3-19.6-11.7-30.5-15.1
	c-14.3-4.4-29-7.3-43.9-8.5c-13.1-1.1-26.2-1.8-39.3-2.3c-6.8-0.2-13.6,1-20,3.5C15.8,44.1,1,76.8,11.9,106.1
	c9.8,26.1,37,41.2,64.3,35.7c9.1-1.8,17.7-5.1,26.2-8.6c10.3-4.2,20.5-8.8,31.5-10.4c7.5-1.1,15.1-1.5,22.6-2.1
	c2.7-0.2,4.5,1.5,4.5,3.8s-1.5,3.8-4.1,3.9c-2.1,0.1-4.3,0.3-6.4,0.3c-8.2,0.1-16.3,1.4-24.1,4c-9.7,3.4-19.3,7.2-28.9,11
	c-12.5,4.9-25.4,8-39,6.6c-18-1.9-32.7-9.9-44.1-24c-2.1-2.5-3.8-5.3-5.7-8c0,2.2,0.2,4.3,0.6,6.4c3.5,16.4,12.5,29.1,27,37.6
	c14.2,8.4,29.5,9.8,45.1,5.5c9.4-2.6,18.5-6.4,27.6-10c11.5-4.6,23.2-8.3,35.6-9.2c5-0.4,10-0.4,15-1.1
	C178.3,144.8,192.9,127.2,192.1,108z"/>
<path class="st0" d="M70.2,37.7c3.1,0,6.2,0,9.4,0s4.7,1.6,4.6,4.1s-1.9,3.8-5,3.7c-4.5-0.1-9-0.3-13.4-0.3
	c-17.9-0.5-34,10.7-39.8,27.6c-6.8,18.8,2.1,40.8,20,49.7c9.8,4.9,20,5.5,30.5,3.1c9.7-2.2,18.6-6.5,27.7-10.2
	c15.6-6.3,31.7-10.3,48.6-10.4c12.5-0.1,21.6-8.2,23.5-20.4c1-6.5-1.4-11.7-6.2-16c-5.8-5.2-12.8-8.4-20-11.1
	c-12.6-4.7-25.7-7.3-38.9-9.3c-3.2-0.5-4.7-2.7-3.8-5.2c0.6-1.8,2.5-2.9,4.3-2.5c18.1,2.8,35.9,6.5,52.4,14.8
	c5.4,2.6,10.2,6.3,14.2,10.8c7.4,8.8,7.6,18.6,3.1,28.5c-5.1,11-14,17.1-26.2,18.2c-6.7,0.6-13.5,0.8-20.2,1.8
	c-12.7,1.8-24.4,6.8-36.3,11.5c-6.9,2.9-14.1,5.4-21.3,7.3c-23.1,5.6-44.5-4.1-55.6-23.7c-11.6-20.5-5.9-47.8,12.9-62
	c8.9-6.9,20-10.5,31.2-10.2h4.1L70.2,37.7z"/>
<path class="st0" d="M88.2,70.8c0,7.1-4.6,13.6-11.9,16.5C68.2,90.5,59,88.4,53.1,82c-6.2-6.8-5.7-17.3,1-23.5
	c0.2-0.2,0.5-0.4,0.8-0.7c8.7-7.3,21.7-6.4,29.3,2.2C86.7,63.1,88.1,66.8,88.2,70.8z M68.4,60.4c-2.1,0.5-4.2,1.2-6.2,2
	c-7.1,3.5-7.6,12.1-1,16.5c4.6,2.9,10.5,2.8,15-0.4c5.5-3.9,5.5-11.2,0.1-15.2C73.9,61.7,71.2,60.7,68.4,60.4z"/>
<path class="st0" d="M92.3,38.5c2.1-0.1,3.9,1.5,4,3.6c0,0.1,0,0.2,0,0.3c0,2.1-1.7,3.9-3.8,3.9c-2.2,0-4-1.7-4-3.9
	C88.5,40.3,90.2,38.6,92.3,38.5z"/>
<path class="st0" d="M173.1,123.6c-2.1,0.1-3.8-1.6-3.9-3.6c0,0,0-0.1,0-0.1c-0.1-2.1,1.6-3.9,3.8-4c0,0,0.1,0,0.1,0
	c2.1,0.1,3.8,1.8,3.9,3.9C176.9,121.9,175.2,123.6,173.1,123.6z"/>
</svg>
