<?xml version="1.0" encoding="utf-8"?>
<!-- Generator: Adobe Illustrator 25.3.1, SVG Export Plug-In . SVG Version: 6.00 Build 0)  -->
<svg version="1.1" id="Layer_1" xmlns="http://www.w3.org/2000/svg" xmlns:xlink="http://www.w3.org/1999/xlink" x="0px" y="0px"
	 viewBox="0 0 200 200" style="enable-background:new 0 0 200 200;" xml:space="preserve">
<style type="text/css">
	.st0{fill:#C4C4C4;}
</style>
<path class="st0" d="M0,111.1c1.2-2.6,3.3-3.6,6.1-3.5c2.3,0.1,4.6,0.1,6.8,0c0.5,0,1.4-0.3,1.5-0.7c1.8-4.1,3.4-8.3,4.7-12.5
	c1-4.1,0.8-8.5-0.7-12.5c-1.5,0.1-2.9,0.2-4.4,0.5c-5.9,1.5-9.9-3.9-8-9.6c0.1-0.2,0.1-0.5-0.3-0.5c-1-1.8-2.3-3.5-2.9-5.5
	c-1.1-3.4,0.6-6.3,3.9-7.6c1.6-0.6,3.4-1,5-1.7c0.7-0.3,1.2-1,1.4-1.7c0.3-2,1.7-3.6,3.6-4.2c1.5-0.5,3-1,4.4-1.5
	c1.9-0.7,4.1-0.2,5.5,1.4c0.2,0.2,0.3,0.4,0.5,0.5c1,0.5,6.8-1.9,7-3c0.5-2.5,2.5-4.4,5-4.9c1.4-0.4,2.8-0.9,4.3-1.4
	c1.9-0.7,4.1-0.2,5.5,1.3c0.2,0.2,0.4,0.5,0.7,0.7c1,0.4,7-2.1,7.3-3.1c1.7-5.4,6.7-5.6,11-6.5c1.2,0,2.3,0.4,3.1,1.2
	c0.7,0.9,1.9,1.2,2.9,0.6c0.8-0.3,1.6-0.6,2.4-0.8c1.4-0.2,2.5-1.3,2.7-2.8c1-4.3,10.1-6.8,13.1-3.7c0.9,0.9,1.6,0.7,2.6,0.4
	c14.1-4.7,28.3-9.3,42.5-14c2.9-1,4.7-0.5,5.3,1.4s-0.5,3.2-3.3,4.1L97.2,35.5c-4,1.3-4,1.3-4.4,6L184.6,14l-2-6.5
	c-0.7,0.2-1.3,0.3-1.9,0.5c-8.5,2.8-17,5.6-25.5,8.4c-0.7,0.2-1.6,0.7-2.2,0.5c-1.1-0.4-2.1-1.1-2.8-2c-0.6-1.2-0.1-2.6,1.1-3.2
	c0.6-0.3,1.2-0.6,1.8-0.8c8.8-2.9,17.6-5.8,26.4-8.7c4.6-1.5,7.5-0.1,9,4.5c0.5,1.4,0.9,2.9,1.3,4.3c1.4,4.5-0.1,7.5-4.6,8.8
	l-50.7,15.2c-14.2,4.3-28.4,8.5-42.7,12.8c-1.1,0.2-2.1,1.1-2.4,2.2c-0.8,2.3-1.7,4.6-2.7,7.4c2.7-0.4,4.9-0.7,7-1
	c17.4-2.7,34.9-5.3,52.3-8c15-2.3,30-4.6,45-6.9c3.9-0.6,6.8,1.3,7.5,5.2c0.4,2,0.6,4.1,0.9,6.2c0.4,3.7-1.8,6.4-5.7,7
	c-6.6,0.9-13.1,1.7-19.7,2.5l-42,5.2l-38.9,4.9c-0.9,0.1-1.9,0.3-2.9,0.4c4.8,11.7,4.7,23.1-0.7,34.7H92c26.2,0,52.4,0,78.6,0
	c1.2,0,2.3,0.1,3.4,0.5c2.1,0.8,2.9,2.8,2.6,5.9c-1.1,9.4-3.4,18.7-6.8,27.5c-6.6,16.4-16.8,29.9-31.4,40c-2.3,1.6-3.4,3.2-3,6
	c0.1,1.1,0.1,2.2-0.2,3.3c-0.9,3.9-4.4,6.8-8.4,6.8c-3,0.1-6,0-9,0c-22,0-43.9,0-65.9,0c-6.9,0-10.5-3.5-10.3-10.4
	c0.2-2.2-0.9-4.4-2.8-5.5c-20-14-31.6-33.4-36.7-57c-0.7-3.5-1.3-7-2-10.5L0,111.1z M170.8,113.6H5.9c0.7,3.6,1.2,7,1.9,10.4
	c4.5,20.6,14.5,37.8,31.2,50.9c3.5,2.8,7,5,11.8,4.2c1.1-0.1,2.2-0.1,3.3,0c1.5,0,3-0.1,4.5,0.1c1.5,0,2.7,1.2,2.7,2.7
	c0,0.1,0,0.2,0,0.3c0,1.6-1.1,2.6-2.9,2.8c-1.2,0.1-2.3,0-3.5,0h-7.5c-0.6,5.9,0.3,7,5.7,7c23.8-0.1,47.7,0,71.5,0
	c0.7,0,1.4,0,2.1-0.1c1.4-0.1,2.5-1.1,2.6-2.5c0.1-1.5,0.1-2.9,0-4.4H73.9c-0.8,0-1.6,0-2.3-0.1c-1.5-0.2-2.6-1.7-2.4-3.2
	c0.2-1.1,1-2,2.1-2.3c0.8-0.2,1.7-0.2,2.5-0.2c18.7,0,37.4,0,56.1,0c1,0,2-0.2,2.9-0.7C155.8,162.9,167.2,140.6,170.8,113.6z
	 M87.8,67.3l106-13.3l-1-6.8L87,63.4L87.8,67.3z M79.8,107.4l0.3,0.5c1.1-0.3,2.8-0.3,3.1-1c2.4-4.2,3.9-8.9,4.4-13.8
	c0.5-7.1-0.9-14.3-4.2-20.7c-3.5-7.3-3.2-15-0.4-22.5c0.8-2.3,2-4.5,2.8-6.8c0.9-2.7,1.4-5.6,2.2-8.5c-2.5,0.1-3.5,0.9-3.8,3.1
	c-0.6,2.4-1.3,4.7-2.2,7c-1.1,3-2.5,5.9-3.2,8.9c-1.7,8.1-0.4,15.9,3.2,23.4c3.9,8.2,3.8,16.7,0.1,25
	C81.4,103.9,80.6,105.6,79.8,107.4z M60,107.6c1.5-0.2,2.9,0.8,3.9-1.1c5.5-11,5.7-22,0.3-33.1c-1.3-2.8-2.2-5.8-2.6-8.9
	c-0.9-6,0.2-12,3-17.4c0.9-1.7,1.5-3.6,2.2-5.4l-0.5-0.3c-1.1,0.6-2.8,0.9-3.3,1.8c-2.5,4.3-4.1,9.2-4.6,14.1
	C58,64,59.3,70.8,62.2,76.9c4,8.4,3.9,16.9,0.1,25.4C61.5,104,60.8,105.7,60,107.6z M43.8,49.2c-3.5,0.5-3.7,0.6-4.3,3.6
	c-1.9,7.7-1,15.9,2.5,23c4.4,9,4.6,18.1,0.3,27.2c-0.7,1.5-1.3,3-1.9,4.5l0.4,0.5c1-0.4,2.7-0.5,3-1.2c5.3-10.1,6.2-20.5,1.6-31.1
	c-0.9-1.9-1.8-3.9-2.5-5.9C40.8,63,41.1,55.8,43.8,49.2z M21.6,56.4c-2.7,0.5-2.7,0.5-2.8,3.5C18.7,65.8,20,71.7,22.7,77
	c3.9,8.3,3.8,16.8,0.1,25.2c-0.8,1.7-1.5,3.5-2.2,5.3c2.3,0.7,3.7,0.2,4.2-2c0.3-0.7,0.6-1.4,0.9-2.1c3.8-8.5,3.9-18.2,0.3-26.8
	c-1.2-3-2.7-6-3.4-9.1C21.9,63.9,21.9,60.1,21.6,56.4z M71.5,75.4c3.8,10.6,3.2,22.2-1.7,32.3c1.2,0,2.1,0.1,3,0
	c0.4,0,0.8-0.3,1-0.6c1.6-3.9,3.4-7.7,4.5-11.8c1.7-6.2,0.6-12.1-2.3-17.8C74.6,74.8,74.7,74.7,71.5,75.4L71.5,75.4z M52.5,77.8
	c2.8,10.2,2.1,20.1-2.5,29.6c3.6,0.7,3.6,0.6,4.8-2.5c0.7-1.9,1.6-3.7,2.4-5.5C60,93.2,60,86.2,57.2,80C56,77,55.9,77,52.5,77.8z
	 M33.4,80.1c1.9,9.5,1.2,18.6-3.1,27.3c3.7,0.5,3.7,0.5,4.8-2.6c0.8-2,1.7-3.9,2.5-5.9c2.2-5.1,2.5-10.7,1-16
	C37.6,79.3,37.5,79.4,33.4,80.1z M67.4,60.3c4.8-0.2,4.8-0.2,5.2-4.7c0-0.6,0.1-1.1,0.2-1.7C67.9,54.4,67,55.4,67.4,60.3L67.4,60.3z
	 M70.8,48c3.9-0.7,4.6-1.3,5.4-5.3C72.9,42.8,71.2,44.6,70.8,48z M53.6,50.1c-4.3,0.9-5.2,1.7-5.2,4.7C50.9,54.1,54,54.2,53.6,50.1z
	 M67.8,66.3c0.7,3.6,1.7,4.1,5.1,2.4l-0.6-3.2L67.8,66.3z M27.9,61l3.1-0.9c2-0.6,2.2-1.1,1.3-3.1c-0.9,0.3-1.8,0.6-2.8,0.9
	C27.8,58.2,27.3,59.2,27.9,61z M52.4,59.9c-1.2,0.3-2.2,0.7-3.3,0.9c-1.7,0.3-2.1,1.2-1.4,2.7l4.6-0.8V59.9z M49.1,69.2
	c0.8,3.1,1.3,3.4,4.7,2.1l-0.7-2.7L49.1,69.2z M12.7,63.5c-4.6,1.3-5,1.4-3.7,3C13.3,65.7,13.3,65.7,12.7,63.5z M34,71.5
	c-1,0.1-1.8,0.2-2.6,0.3c-0.3,0.1-0.6,0.2-0.9,0.3c0.9,2.4,0.9,2.4,4.2,1.6L34,71.5z M11.7,76.8l4.2-0.6c-0.6-1.4-2.3-2.1-3.7-1.4
	c-0.3,0.1-0.5,0.3-0.7,0.4L11.7,76.8z"/>
</svg>
