<?xml version="1.0" encoding="utf-8"?>
<!-- Generator: Adobe Illustrator 25.3.1, SVG Export Plug-In . SVG Version: 6.00 Build 0)  -->
<svg version="1.1" id="Layer_1" xmlns="http://www.w3.org/2000/svg" xmlns:xlink="http://www.w3.org/1999/xlink" x="0px" y="0px"
	 viewBox="0 0 200 200" style="enable-background:new 0 0 200 200;" xml:space="preserve">
<style type="text/css">
	.st0{fill:#C4C4C4;}
</style>
<path class="st0" d="M17.9,51.4C8.1,48.7,7,34.1,13.1,28.1c1.7-1.8,4.1-2.7,6.6-2.6c11.9,0,23.8,0,35.6,0c1.2,0,2.4-0.3,3.4-0.9
	c9.8-5.3,19.7-10.7,29.5-16C91.1,6.9,94.5,6,97.9,6c21.5,0,42.9,0,64.4,0h2.6c0-1.2,0-2.2,0-3.2c-0.1-1.7,1.3-3.2,3-3.3
	c0.1,0,0.2,0,0.3,0c8.6,0,17.1,0,25.7,0c2.2,0,3.3,1.4,3.3,3.9c0,10.8,0,21.6,0,32.3c0,2.8,0,5.7,0,8.5c0,2.5-1.2,3.7-3.8,3.7
	c-8.3,0-16.6,0-24.9,0c-2.5,0-3.7-1.2-3.7-3.7c0-1.9,0-3.8,0-5.8h-6.4c-1.7,9.6-7.4,15.1-17.4,16.2l5.4,18.3
	c2.6,8.8,5.3,17.7,7.8,26.5c0.6,2,0.9,4.1,0.9,6.2c0.1,29.9,0.1,59.8,0,89.7c0,3.7-1,4.6-4.7,4.6H7.5c-3.7,0-4.6-0.9-4.6-4.7
	c0-29.9,0-59.8,0-89.7c0-2.3,0.4-4.5,1-6.7C8.4,83.4,13,68,17.6,52.5C17.7,52.2,17.8,51.8,17.9,51.4z M116.2,193.5v-2.6
	c0-28.4,0-56.8,0-85.2c0-2.2,0.3-4.3,0.9-6.4c2.2-8,4.7-15.9,7-23.8c1.7-5.7,3.4-11.4,5.2-17.7c-1,0.8-1.6,1.2-2.2,1.6
	c-4.5,3.6-9,7.2-13.7,10.6c-6.3,4.6-15.2,3.2-19.9-3.1c-1.4-1.9-2.3-4-2.6-6.3c-0.5-3.3,0.4-6.2,1.6-9.2H24.7
	c-0.2,0.5-0.3,1-0.5,1.4c-4.7,15.9-9.4,31.8-14.1,47.8c-0.5,1.7-0.8,3.6-0.8,5.4c0,28.4,0,56.8,0,85.2v2.2L116.2,193.5z M71.3,25.1
	l0.1,0.4h46c0.5,0,1,0,1.4,0c1.5-0.2,3,0.6,3.6,2c0.7,1.6,0,2.9-1.2,4c-7.1,7.1-14.3,14.2-21.4,21.3c-3.3,2.8-3.7,7.7-1,11
	s7.7,3.7,11,1l0,0c5-3.7,10-7.3,14.7-11.5c4.5-4,9.2-6,15.2-5.1c0.3,0,0.5,0,0.8,0c6,0.2,11.1-4.6,11.3-10.6
	c0.2-3.7,2.2-5.5,5.8-5.5c2.3,0,4.7,0,7,0V12.5h-2.6c-20.6,0-41.2,0.1-61.8-0.1c-3.9-0.1-7.8,0.9-11.2,2.8
	C83.3,18.7,77.3,21.8,71.3,25.1z M148.6,189.1v-2c0-27.2,0-54.4,0-81.6c0-1.5-0.3-2.9-0.7-4.3c-3.8-13-7.7-26.1-11.5-39.1
	c-0.2-0.6-0.4-1.2-0.8-2.2c-0.4,1.2-0.6,1.7-0.8,2.3C131,75,127.2,88,123.4,101c-0.5,1.5-0.7,3.1-0.7,4.8c0,26.9,0,53.9,0,80.8v2.5
	c3.1-3.1,5.7-5.8,8.4-8.4c0.9-0.8,1.5-2.1,1.4-3.3c0-22.1,0-44.2,0-66.3c0-3.3,1.1-4.8,3.3-4.8s3.2,1.6,3.2,4.9
	c0,22.1,0,44.2,0,66.3c0,0.9,0.2,1.8,0.8,2.5C142.4,182.9,145.3,185.7,148.6,189.1L148.6,189.1z M111.7,31.9H21.6
	c-3.9,0-5.4,1.1-5.6,5.1c0,2,0.3,4.1,1,6c0.4,1.3,1.5,1.8,3,1.8c25.8,0,51.5,0,77.3,0c0.7,0.1,1.3-0.1,1.8-0.5
	C103.2,40.4,107.2,36.3,111.7,31.9z M190.6,41.5V6.2h-19.2v35.3H190.6z M127.8,193.5h15.7c-2.7-2.8-5.3-5.4-7.8-7.9L127.8,193.5z"/>
<path class="st0" d="M35.2,112.7h6.5v-7c0-0.7,0-1.5,0-2.2c0.1-2.2,1.3-3.6,3.2-3.7s3.2,1.4,3.3,3.6c0,3,0,6,0,9.2h6.5
	c0-2.9,0-5.8,0-8.7c0-2.7,1.3-4.2,3.3-4.1s3.1,1.5,3.2,4.1c0,0.1,0,0.1,0,0.2c1.1,8.3-0.9,16.6-5.4,23.6c-0.7,1.3-0.9,2.7-0.8,4.2
	c0.8,11.7,1.7,23.4,2.5,35c0.4,5.3-3.6,10-8.9,10.4c-0.3,0-0.5,0-0.8,0c-1.8,0-3.7,0-5.5,0c-5.3,0.1-9.7-4.2-9.8-9.5
	c0-0.3,0-0.5,0-0.8c0.8-11.8,1.7-23.6,2.5-35.4c-0.1-1.2-0.3-2.5-0.6-3.7c0-0.1-0.1-0.3-0.2-0.4c-4.9-7.2-6.3-15.2-5.5-23.8
	c0.2-2.5,1.3-4,3.3-4s3.2,1.5,3.2,4.1C35.2,106.8,35.2,109.6,35.2,112.7z M41.5,132.2c-0.2,3.5-0.5,6.9-0.7,10.3
	c-0.6,8.1-1.2,16.2-1.8,24.4c-0.2,2.6,1.1,4,3.7,4c1.4,0,2.8,0,4.2,0c3,0,4.2-1.4,4-4.4c-0.5-7.2-1-14.4-1.5-21.6
	c-0.3-4.2-0.6-8.4-1-12.7L41.5,132.2z M37.3,119.3c1,2,1.9,3.9,2.9,5.7c0.4,0.4,0.9,0.6,1.5,0.6c2.2,0.1,4.3,0.1,6.5,0
	c0.5,0,1.2-0.1,1.4-0.4c1.1-1.9,2-3.8,3-5.9L37.3,119.3z"/>
<path class="st0" d="M90.3,125.4c-0.8,11.4,0.8,25.3,2.3,39.2c0.5,3.1-0.1,6.2-1.6,8.9c-3.1,5.2-17.7,5.4-20.8-0.1
	c-1.3-2.1-1.9-4.5-1.7-6.9c0.8-7.7,1.5-15.4,2.3-23.1c0.2-2,0-3.4-2.1-4c-0.8-0.3-1.5-0.6-2.2-1c-1.4-0.6-2.2-2.1-2-3.6
	c1-8.7,2.8-17.1,7.2-24.8c3-5.2,7-9,13.2-10c4-0.7,5.5,0.6,5.5,4.7L90.3,125.4z M83.7,138.5v-31.4c-2.6,0.8-4.8,2.8-6.7,6.4
	c-3,5.5-4.4,11.5-5.6,17.6c-0.3,1.7,0,2.7,1.7,3.4c1.9,0.8,4,1.5,4.4,4L83.7,138.5z M77,145.1c-0.7,7.4-1.5,14.6-2.1,21.8
	c-0.2,2.6,1,3.9,3.6,3.9c1.4,0,2.8,0,4.2,0c2.4-0.1,3.7-1.3,3.5-3.6c-0.6-7.3-1.4-14.7-2.1-22.1H77z"/>
</svg>
