<?xml version="1.0" encoding="utf-8"?>
<!-- Generator: Adobe Illustrator 25.3.1, SVG Export Plug-In . SVG Version: 6.00 Build 0)  -->
<svg version="1.1" id="Layer_1" xmlns="http://www.w3.org/2000/svg" xmlns:xlink="http://www.w3.org/1999/xlink" x="0px" y="0px"
	 viewBox="0 0 200 200" style="enable-background:new 0 0 200 200;" xml:space="preserve">
<style type="text/css">
	.st0{fill:#C4C4C4;}
</style>
<path class="st0" d="M164.4,200h-3.1c-0.6-0.3-1.1-0.6-1.7-0.8c-8.8-3.1-17.5-6.1-26.3-9.2c-42.5-14.8-85-29.6-127.5-44.3
	c-2.6-0.9-4.7-2.1-5.8-4.7V75.4c1.1-2.6,3.2-3.8,5.8-4.7C24.4,64.3,43,57.8,61.6,51.3c1.1-0.3,2-1.2,2-2.4
	c1.6-11.1,7.7-18.8,17.9-23.3c1.4-0.6,2.9-1,4.8-1.7c-1.1-2-2-4.1-3.2-5.9c-2.1-3-5-5.4-8.4-6.8c-2.2-0.9-3.6-3-3.6-5.4
	c-0.1-2.4,1.4-4.6,3.7-5.5C75,0.3,75.2,0.2,75.4,0h3.1c0.2,0.2,0.4,0.3,0.6,0.4c9.8,4.5,16.2,11.7,18.6,22.3
	c0.3,0.7,0.9,1.2,1.7,1.5c5,1.2,9.6,3.8,13.3,7.4c0.9,1.1,2.3,1.4,3.6,0.8c14.5-5.1,29.1-10.1,43.6-15.3c2.3-0.9,4.9-0.6,7,0.8
	c16.2,10.1,26,24.7,30.7,43c1.1,4.1,1.6,8.4,2.4,12.6v86.7c-0.2,0.6-0.3,1.1-0.4,1.7c-1.7,18.1-12.6,31.4-30,36.6
	C167.9,198.9,166.2,199.5,164.4,200z M23.8,76.9c1.1,0.4,1.7,0.7,2.3,0.9l78.8,27.3c4.1,1.4,5.2,3,5.2,7.4c0,10,0,20,0,30.1
	c0,4,2.4,6.6,5.8,6.6s5.9-2.7,5.9-6.6c0-7.3,0.2-14.6-0.1-21.9c-0.2-5.2,3.8-8.6,9.1-6.6c8.4,3.2,17.1,5.6,25.3,9.1
	c4.8,2,7.8,0.9,11.2-2.3c16.5-15.7,24.7-34.1,18.8-57.1c-3.6-14-10.7-25.6-22.6-34.1c-0.9-0.7-2.1-0.9-3.2-0.5
	c-12.7,4.5-25.5,8.9-38.3,13.4c-0.7,0.2-1.3,0.5-1.9,0.8c4.8,14.5-2.3,30.3-16.4,36.3c-12.9,5.6-31.9,1.1-39.2-17.1L23.8,76.9z
	 M157,185.9c0-5.9-0.1-11.4,0-17c0.2-1.2-0.6-2.3-1.8-2.4c-8.7-3-17.3-6-25.9-9.1c-1.1-0.5-2.4-0.3-3.3,0.4
	c-7.9,5.5-18.8,3.6-24.3-4.2c-1.1-1.5-1.9-3.2-2.4-5c-0.3-1.3-1.3-2.3-2.6-2.7c-26.7-9.3-53.3-18.6-80-27.8c-1.6-0.5-3.1-1-4.9-1.6
	c0,5.8,0.1,11.3,0,16.8c-0.2,1.2,0.6,2.4,1.9,2.6c43.6,15.1,87.1,30.3,130.7,45.5L157,185.9z M98.4,115.3L11.7,85.2
	c0,5.9,0.1,11.5,0,17.1c-0.2,1.2,0.6,2.3,1.8,2.4c27.5,9.5,55,19,82.5,28.6l2.4,0.8L98.4,115.3z M188.2,115c-0.7,0.9-1.2,1.5-1.6,2
	c-4.7,6.4-10.2,12-16.6,16.7c-1,0.6-1.5,1.8-1.4,2.9c0,15.9,0,31.8,0,47.7v2c6.5-2.4,11.6-6.2,15-12s4.5-12.6,4.5-19.3
	c0-12.6,0-25.1,0-37.7L188.2,115z M92.2,70.3c9.7,0.2,17.7-7.5,17.9-17.3s-7.5-17.7-17.3-17.9C83.2,35,75.2,42.7,75,52.4
	C74.8,62.1,82.6,70.1,92.2,70.3C92.3,70.3,92.3,70.3,92.2,70.3L92.2,70.3z M157,154.6c0-6.1,0-11.9-0.1-17.7
	c-0.2-0.7-0.7-1.3-1.4-1.6c-6.7-2.4-13.5-4.8-20.2-7.1c-0.5-0.2-1.1-0.3-1.8-0.5v18.7L157,154.6z"/>
<path class="st0" d="M166.8,51.6c0,3.2-2.6,5.9-5.9,5.8c-3.2,0-5.9-2.6-5.8-5.9s2.6-5.9,5.9-5.8c0,0,0,0,0,0
	C164.2,45.8,166.8,48.4,166.8,51.6z"/>
<path class="st0" d="M143.4,75c0,3.2-2.6,5.8-5.9,5.8c-3.2,0-5.8-2.6-5.8-5.9c0-3.2,2.6-5.8,5.9-5.8c0,0,0,0,0,0
	C140.8,69.2,143.3,71.8,143.4,75z"/>
<path class="st0" d="M168.8,73.1c3.2,0,5.8,2.7,5.8,5.9c0,3.2-2.7,5.8-5.9,5.8c-3.2,0-5.8-2.7-5.8-5.9c0,0,0,0,0-0.1
	C163,75.6,165.6,73,168.8,73.1z"/>
<path class="st0" d="M149.3,96.5c3.2,0,5.8,2.7,5.8,5.9c0,3.2-2.7,5.8-5.9,5.8c-3.2,0-5.8-2.7-5.8-5.9c0,0,0,0,0-0.1
	C143.5,99,146.1,96.5,149.3,96.5z"/>
</svg>
