<?xml version="1.0" encoding="utf-8"?>
<!-- Generator: Adobe Illustrator 25.3.1, SVG Export Plug-In . SVG Version: 6.00 Build 0)  -->
<svg version="1.1" id="Layer_1" xmlns="http://www.w3.org/2000/svg" xmlns:xlink="http://www.w3.org/1999/xlink" x="0px" y="0px"
	 viewBox="0 0 200 200" style="enable-background:new 0 0 200 200;" xml:space="preserve">
<style type="text/css">
	.st0{fill:#C4C4C4;}
</style>
<path class="st0" d="M107.4,0c3.7,0.4,7.4,0.7,11,1.2c19.8,2.6,38.3,8.5,54.3,20.9c8,6.2,14.3,13.7,17.3,23.5
	c3.9,12.5,1.1,23.9-6.6,34.2c-2.8,3.7-6.3,6.9-9.6,10.2c-1,0.9-1.6,2.1-1.6,3.5c0,27.8,0,55.6,0,83.4c0,11-6.8,19.8-17.4,22.3
	c-1.5,0.4-3.1,0.5-4.6,0.6c-5.4,0.1-10.8,0-16.2,0c-2.3,0-3.6-1.1-3.6-2.9s1.4-2.9,3.6-2.9c5,0,10,0,15,0c10.3,0,17.3-7,17.3-17.2
	c0-28.3,0-56.7,0-85c-0.1-2.1,0.9-4.1,2.6-5.2c5.5-4.1,10-9.3,13.2-15.4c6.2-12,4.4-25.3-4.8-36.3c-8.1-9.5-18.5-15.6-29.9-20.2
	c-17.7-7-36.2-9.4-55.1-8.4C77.5,6.7,62.8,10,49.1,15.9c-9.1,4-17.4,9.1-24.3,16.3C10.6,47,10.5,65.4,24.5,80.4
	c2.1,2.2,4.3,4.2,6.6,6c1.6,1.1,2.5,3,2.4,5c0,28.4,0,56.8,0,85.2c0,8.2,4.6,14.6,12.1,16.6c1.8,0.4,3.6,0.6,5.4,0.6
	c22.5,0,44.9,0,67.4,0c0.7,0,1.3,0,1.9,0.1c1.6,0.2,2.7,1.6,2.5,3.2c-0.2,1.3-1.2,2.4-2.5,2.5c-0.6,0.1-1.2,0.1-1.8,0.1H50.8
	c-13.5,0-23.1-9.6-23.1-23.1c0-27.5,0-55.1,0-82.7c0.1-1.7-0.6-3.4-2-4.4C18,83,12,75.3,9.4,65.5c-3.3-12.8,0.1-24.2,8.3-34.2
	C26.5,20.6,38,13.9,50.6,8.9c12.8-5,26.2-7.9,39.9-8.6c0.7,0,1.4-0.2,2.1-0.3H107.4z"/>
<path class="st0" d="M99.8,187.9H51c-7.2,0-11.6-4.3-11.6-11.4c0-7.9,0-15.7,0-23.6c0-2.1,1.2-3.4,2.9-3.4s2.9,1.3,3,3.4
	c0,0.5,0,0.9,0,1.4c0,7.3,0,14.5,0,21.8c0,4.4,1.6,6,6,6h97.4c4.5,0,6.1-1.6,6.1-6.1c0-28.1,0.1-56.1,0-84.2c0-6.2,2.1-11,7.1-14.8
	c4.3-3.1,7.9-7.2,10.2-12c3.2-6.6,2.7-13.1-1.1-19.3c-3.6-5.9-8.9-10.1-14.6-13.8c-2.7-1.7-3.4-3.2-2.2-4.9s2.7-1.6,5.3,0
	c5.7,3.4,10.7,7.9,14.8,13.1c8.2,11,7.9,23.2-1,34c-2.3,2.8-4.9,5.3-7.8,7.6c-3.1,2.3-4.9,6-4.8,9.9c0.1,28.3,0.1,56.7,0,85
	c0,6-3.3,10.2-8.7,11.2c-1,0.2-2.1,0.2-3.1,0.2L99.8,187.9z"/>
<path class="st0" d="M39.4,114c0-7.6-0.1-15.2,0-22.8c0.2-3.7-1.5-7.2-4.6-9.3c-5.4-4.1-9.9-9-12.6-15.3
	c-4.7-10.8-1.8-20.2,5.4-28.7c7.5-8.7,17.2-14.2,27.7-18.2c18.7-7.1,38.1-9.2,57.9-7.3c10.2,0.9,20.3,3.2,30,6.7
	c0.5,0.2,1,0.3,1.5,0.5c2,0.9,2.8,2.3,2.1,4s-2.2,2.1-4.3,1.5c-7.1-2-14.2-4.5-21.4-5.7c-25.2-4.2-49.7-1.8-72.8,9.8
	c-6.6,3.1-12.4,7.7-17.1,13.3c-7.4,9.3-7.4,18.9,0.3,28c2,2.4,4.2,4.5,6.7,6.4c4.9,3.7,7.1,8.5,7,14.6c-0.1,15.1,0,30.1,0,45.2
	c0,0.5,0,1,0,1.6c-0.1,2.1-1.3,3.3-3.1,3.3s-2.8-1.2-2.8-3.3c0-7.3,0-14.6,0-21.8L39.4,114z"/>
<path class="st0" d="M116.4,86.7c2.8,0,4.2,2.4,3.1,4.3c-0.4,0.6-0.9,1.1-1.4,1.6l-53.4,53.3c-0.4,0.4-0.8,0.8-1.3,1.2
	c-1.1,0.9-2.8,0.7-3.7-0.4c-1-1-1.2-2.6-0.2-3.7c0.4-0.5,0.8-0.9,1.2-1.3C78.4,124,96.2,106.3,114,88.6
	C114.8,87.9,115.6,87.2,116.4,86.7z"/>
<path class="st0" d="M141.6,110.7c-0.6,1-1.3,1.9-2,2.8c-8.1,8.1-16.2,16.3-24.4,24.4c-9.7,9.7-19.4,19.4-29.2,29.1
	c-0.5,0.6-1.1,1.1-1.8,1.5c-1,0.7-2.5,0.5-3.2-0.5c0,0,0-0.1-0.1-0.1c-0.4-1.1-0.6-2.2-0.4-3.4c0-0.5,0.8-1,1.2-1.5l53.6-53.4
	c0.4-0.4,0.8-1,1.3-1.1c0.9-0.3,2-0.4,2.9-0.1C140.3,108.6,140.8,109.7,141.6,110.7z"/>
<path class="st0" d="M118.3,112.8c-0.7,1-1.4,2-2.2,2.9c-15.3,15.4-30.7,30.7-46.1,46.1l-6.1,6.1c-0.4,0.4-0.7,0.7-1.2,1.1
	c-1.1,1-2.8,0.8-3.8-0.3c0,0,0,0,0-0.1c-1-1-1.1-2.6-0.2-3.7c0.4-0.5,0.8-0.9,1.3-1.3c17.3-17.3,34.6-34.6,51.9-51.8
	c0.5-0.5,1-1.2,1.6-1.4c0.9-0.3,2-0.3,2.9,0C117.2,110.8,117.6,111.9,118.3,112.8z"/>
<path class="st0" d="M138.8,135.4c-0.5,0.9-1,1.8-1.6,2.6c-8.9,9-17.9,17.9-26.9,26.9c-1.6,1.5-3.2,1.6-4.5,0.3s-1.1-3,0.3-4.5
	c9-9,17.9-17.9,26.9-26.9c1-1,2.2-1.7,3.5-0.9C137.4,133.6,138.1,134.5,138.8,135.4z"/>
<path class="st0" d="M95.4,92.2c-0.4,0.9-1,1.7-1.6,2.5c-8.9,9-17.9,17.9-26.9,26.8c-1.5,1.5-3.2,1.6-4.5,0.3s-1.2-2.9,0.3-4.4
	c8.9-9,17.9-17.9,26.9-26.9c1.1-1.1,2.3-1.7,3.7-0.8C94.2,90.5,94.9,91.3,95.4,92.2z"/>
<path class="st0" d="M124.4,106.5c-0.9-0.8-2.1-1.3-2.3-2.2c-0.3-1.1,0-2.2,0.6-3.2c2-2.3,4.2-4.4,6.4-6.5c2.5-2.5,4.9-5,7.4-7.4
	c1.6-1.5,3.2-1.7,4.5-0.4s1.2,3-0.4,4.6c-4.5,4.5-9,9-13.5,13.5C126.3,105.4,125.4,106,124.4,106.5z"/>
<path class="st0" d="M61.5,44.5c-1.6,0-2.9-1.3-2.9-2.9c0-1.6,1.3-2.9,2.9-2.9c1.6,0,2.9,1.3,2.9,2.9S63.1,44.4,61.5,44.5
	C61.5,44.5,61.5,44.5,61.5,44.5z"/>
<path class="st0" d="M50.2,55c1.6,0.1,2.9,1.5,2.8,3.1c-0.1,1.6-1.4,2.7-3,2.7c-1.6,0-2.9-1.3-2.8-2.9c0,0,0-0.1,0-0.1
	C47.4,56.2,48.7,55,50.2,55z"/>
<path class="st0" d="M77.7,66.2c0,1.6-1.4,2.9-3,2.8s-2.9-1.4-2.8-3c0.1-1.6,1.3-2.8,2.9-2.9C76.4,63.2,77.7,64.5,77.7,66.2
	C77.7,66.1,77.7,66.1,77.7,66.2z"/>
<path class="st0" d="M150.6,58.9c0,1.6-1.3,3-2.9,3c-1.6,0-2.8-1.3-2.9-2.9c-0.1-1.6,1.1-2.9,2.7-2.9c0,0,0,0,0,0
	c1.6-0.1,3,1.1,3.1,2.7C150.6,58.8,150.6,58.9,150.6,58.9z"/>
<path class="st0" d="M130.4,50.1c-1.6,0-2.9-1.3-2.8-2.9c0-1.6,1.3-2.9,2.9-2.8c1.5,0,2.8,1.3,2.8,2.8c0.1,1.6-1.2,2.9-2.8,2.9
	C130.6,50.1,130.5,50.1,130.4,50.1z"/>
</svg>
