<?xml version="1.0" encoding="utf-8"?>
<!-- Generator: Adobe Illustrator 25.3.1, SVG Export Plug-In . SVG Version: 6.00 Build 0)  -->
<svg version="1.1" id="Layer_1" xmlns="http://www.w3.org/2000/svg" xmlns:xlink="http://www.w3.org/1999/xlink" x="0px" y="0px"
	 viewBox="0 0 200 200" style="enable-background:new 0 0 200 200;" xml:space="preserve">
<style type="text/css">
	.st0{fill:#C4C4C4;}
</style>
<path class="st0" d="M48.1,115.6c-3.5-3-6.8-5.5-9.6-8.4c-3.3-3.3-7.5-5.3-12.1-5.8c-5.8-0.8-9.3-4-10.1-9c-0.2-2-0.2-4.1,0-6.1
	l0.6-0.2c-0.7-0.2-1.3-0.4-2-0.6C6,82.6,1.3,73.1,4.3,64.4c0.4-1.1,0.9-2.1,1.4-3.1c0.2-0.3,0.4-0.7,0.6-1c2.4-3.1,3.9-6.7,4.5-10.6
	c1.7-8.7,9.1-15,17.9-15.2c1,0,2-0.6,2.3-1.5c4.5-9.5,15.8-13.7,25.3-9.2c0.9,0.4,1.8,0.9,2.6,1.5c3,2.1,6.6,3.2,10.2,3.1
	c8.4,0,15.3,6.9,15.3,15.3c0,0.3,0,0.7,0,1c-0.3,2.4,0,4.5,2.4,5.7c0.5,0.3,0.9,0.7,1.2,1.3c1,2.5,2.7,2.7,5.1,2.1
	c1.9-0.3,3.8-0.5,5.8-0.6c-0.5-3.4-1.1-6.7-1.6-10.1c-1.3-8.9,2.2-15.7,10.3-19.6c0.2-0.1,0.3-0.2,0.7-0.4c-1.6-4-3.2-8-4.9-12.3
	l5.7-2.3c2.2,4.5,3.5,9.4,5.9,13.7l0.7-0.2V3.2h6.3v18.6l0.7,0.2c1.4-1.9,2-4.4,2.9-6.6s1.9-4.7,2.9-7.2l5.8,2.3
	c-1.7,4.2-3.3,8.2-4.8,12.2c0.1,0.2,0.2,0.3,0.3,0.4c8.9,4.5,12.2,11.4,10.4,21.2c-0.9,4.7-1.7,9.4-2.6,14.5c3.7-3,8.2-4.8,12.9-5.5
	c0.3,0,0.5-0.1,0.8-0.1c1.3-0.1,3.3,0.3,3.7-0.3c1-1.7,1.7-3.6,2.1-5.6c0.8-2.9-0.5-6.1-3.2-7.5c-3.4-2-5.7-4.6-6.6-8.5
	c-1.9-9,4.2-16.1,13.4-15.6c0.7-0.1,1.2-0.5,1.6-1.1c3.9-7.2,9.9-11.2,18-11.4c6-0.3,11.7,2.9,14.5,8.2c3.2,5.5,3,11.2-0.3,16.7
	c-0.2,0.3-0.4,0.7-0.7,1.1c2.5,3.3,3.8,6.9,2.8,11.1c-1.2,5.3-5.7,9.6-11.1,9.7c-7.4,0.1-11.8,4-14.7,10.5c3.3,3.3,5.6,7.4,6.7,12
	c1.8,8.6,0.5,16.6-5.1,23.6c-4.7,5.9-9.4,11.8-14.1,17.7c-0.4,0.6-0.9,1.1-1.6,2c2.9,0,5.4,0,8,0c4.9,0,7.3,2.4,7.3,7.3
	c0,1.7,0,3.4,0,5.1c0.1,3.4-2.5,6.2-5.9,6.3c-0.9,0-1.7,0.5-1.9,1.4c-7,17-10.7,35.2-10.9,53.6c-0.1,5.3-2.3,7.6-7.6,7.6H54.8
	c-5.3,0-7.6-2.2-7.6-7.6c-0.2-18.4-3.9-36.6-10.9-53.6c-0.2-0.9-1-1.5-1.9-1.4c-3.3-0.1-5.9-2.9-5.9-6.2c0-2,0-4,0-6.1
	c-0.1-3.4,2.7-6.2,6.1-6.3c0.1,0,0.1,0,0.2,0c3.6-0.1,7.3,0,10.9,0L48.1,115.6z M32.2,84c-0.2,0.1-0.2,0.2-0.4,0.3
	c-1.8,0.5-3.6,0.9-5.5,1.4c-2.8,0.8-4.3,2.4-4.2,4.8s1.7,4.1,4.5,4.6s5.4,1,8,1.6c0.9,0.2,1.8,0.6,2.5,1.2
	c6.4,5.4,12.8,10.9,19.1,16.4c1.1,0.7,2.2,1.2,3.4,1.6l0.3-0.6c-0.3-0.5-0.5-1-0.8-1.5c-3.1-5.2-6.2-10.5-9.5-15.7
	c-0.6-0.9-1.5-1.6-2.6-2c-3.3-1-6.8-1.8-10.2-2.6l1.5-6l5.8,1.4c-2.9-4.8-5.5-9.3-8.2-13.7c-0.5-0.5-1.1-0.9-1.8-1
	c-3.2-0.9-6.5-1.7-9.8-2.5l1.5-6l5.1,1.1l-5.4-9.1l5.3-3.2l5.5,9l1.4-5l6,1.5c-0.3,1.7-0.7,3.4-1.2,5c-1.9,4.3-1.2,8.1,1.7,11.9
	c1.8,2.5,3.4,5.2,4.8,7.9l1.2-4.3l6,1.5c-0.8,3.2-1.6,6.1-2.2,9c-0.2,1,0,2,0.4,2.9c4,6.8,8,13.5,12.1,20.3c0.3,0.5,0.7,1,1,1.5
	c0.3-0.4,0.3-0.9,0.2-1.4c-1.6-8-3.2-16-4.8-23.9c-0.4-2-0.3-4,0.2-5.9c1-4.2,1.8-8.4,2.4-12.6c0.4-2.5-1.1-4.9-3.5-5.8
	c-2.3-1-5-0.4-6.5,1.6c-1,1.1-1.9,2.4-2.8,3.5l-4.8-4.6c3.1-3.6,6.3-6.9,11.4-7.2c0-1.5,0.1-2.8,0-4.1c-0.4-4.5-4.1-8.6-8.6-8.3
	c-5.7,0.4-10.1-1.5-14.7-4.5c-7.1-4.7-17.2-0.7-19,7.6c-1.1,5.3-2.9,10.2-6.2,14.5c0,0-0.1,0.1-0.1,0.2c-2.1,3.8-1.6,8.4,1.1,11.7
	C15,79.7,19.5,81,23.7,80c2.3-0.7,4.6-1.2,7-1.8L32.2,84z M125.4,115.6c7.4,0,14.9,0,22.4,0c0.7-0.1,1.3-0.5,1.6-1.1
	c6.1-7.6,12.1-15.1,18.1-22.7c4.4-5.4,5.3-11.7,3.6-18.2c-2.1-8-7.5-12.9-15.7-14c-7.8-1-14.1,2.1-18.2,8.8s-8,13.7-12,20.5
	c-0.5,0.8-0.5,1.9,0,2.7c2.6,4.7,3.5,10.2,2.5,15.5C127.3,109.9,126.2,112.7,125.4,115.6L125.4,115.6z M165.7,56.3
	c0.6-1,1.1-1.9,1.7-2.8c3.5-6.1,9.9-9.8,16.9-9.9c3.5,0.1,6.3-2.6,6.4-6.1s-2.6-6.3-6.1-6.4c-0.2,0-0.3,0-0.5,0c-1.9,0-3.9,0-5.8,0
	v-6.4c3.2,0.2,6.2,0.5,9.2,0.6c0.7-0.1,1.3-0.4,1.7-1c2.8-4.8,1.1-10.9-3.7-13.7c-0.7-0.4-1.5-0.8-2.4-1c-5.7-1.6-12.4,1.7-15.3,7.4
	c-0.6,1.2-0.8,2.1,0.4,3c1,0.7,1.9,1.5,2.7,2.1l-4.7,5.1c-1.2-1.4-2.4-2.7-3.7-3.9c-2.2-2.1-5.8-2-7.9,0.2c-0.4,0.4-0.7,0.8-0.9,1.3
	c-1.7,3.2-0.6,7.3,2.6,9.1c6.2,3.7,8.3,9.5,6.1,16.4c-0.4,1.3-0.8,2.6-1.3,4L165.7,56.3z M103.2,115.6c4.1,0,8.2-0.1,12.3,0
	c1.2,0.1,2.4-0.5,3-1.6c6-8.4,4.1-20.1-4.3-26.2c-2.1-1.5-4.6-2.6-7.1-3.1c-10.1-2-20,4.5-22,14.7c-1.1,5.3,0.2,10.8,3.5,15.1
	c0.6,0.6,1.4,1,2.2,1.1C94.9,115.7,99,115.6,103.2,115.6L103.2,115.6z M122,82.2c2.3-4.1,4.7-8.2,7-12.3c0.2-0.4,0.3-0.7,0.3-1.1
	c1.7-9.1,3.3-18.3,5-27.4c1.1-6.1-2.9-11.9-9-13c-0.6-0.1-1.1-0.2-1.7-0.2c-3.1-0.1-6.2-0.1-9.3,0c-6.2,0.1-11.1,5.2-11,11.4
	c0,0.4,0,0.9,0.1,1.3c0.6,4.1,1.4,8.2,2,12.3c0.1,1,0.8,1.9,1.8,2.2c4.6,2,8.4,5.3,11,9.6C121.3,70.1,122.7,76.1,122,82.2z
	 M78.3,46.9c0-1.3,0-2.5,0-3.5c-0.2-4.5-3.6-9-8.1-8.8c-6.1,0.2-11-1.8-16-5c-6.2-3.9-15.2-0.4-17.4,6c1.3,0.5,2.4,1.2,3.6,2
	c2.9,2.5,6.2,3.1,10,3.1C58,40.6,64.4,46,65.5,53.3c0.3,2,0.2,4,0.4,6c0.1,0.8,0.5,1.6,1.1,2.2c3.2,2.3,5.1,6,5.1,10v2.7
	C73.5,67,77.8,60.7,84,56.8c-1.6-3.9-5.9-4.9-9-2.1c-1.2,1.2-2.4,2.5-3.4,3.8L66.9,54C70,50.5,73.1,47.1,78.3,46.9z M82.3,89.5
	c7.1-10.9,21.4-14.6,32.9-8.4c2.2-6.5-2.2-15.6-9.2-19.5c-7.9-4.3-17.7-2.4-23.4,4.5C77.1,72.8,76.9,83,82.3,89.5L82.3,89.5z
	 M109.6,128h56v-6h-56V128z M34.8,128h55.9v-6H34.8L34.8,128z M103.2,190.6v-56h-6v56H103.2z M68.7,159.2l-9.2,13l15.3,6.8l8.7-13.4
	L68.7,159.2z M147.2,143.3l-13.1-6L124,151.9l13.3,5.5L147.2,143.3z M124.1,176.4l9.5-13.6c-4.3-1.8-8.3-3.5-12.4-5.1
	c-0.5-0.1-1,0.1-1.4,0.4c-2.9,4.1-5.8,8.3-8.8,12.6L124.1,176.4z M139.5,165.2c-3.2,4.6-6.3,9-9.6,13.7l16.9,7.3
	c0.6-5.7,1.1-11.1,1.6-16.5c0-0.5-0.3-0.9-0.7-1.1C145.1,167.4,142.4,166.3,139.5,165.2L139.5,165.2z M72.4,154l14.2,6.1
	c5.2-4.1,4.4-9.7,4.2-15.1c-2.8-1.2-5.5-2.4-8.4-3.5c-0.5-0.1-1,0.1-1.4,0.4C78.1,145.8,75.3,149.8,72.4,154z M75.6,138.6
	c-3.6-1.5-6.9-3-10.4-4.1c-1.3-0.4-3.5-0.2-4.3,0.6c-2.8,3.2-5.1,6.9-7.7,10.5l13.3,5.8L75.6,138.6z M81.6,115.5
	c-3.2-5.7-4.1-12.5-2.4-18.9c0-0.7-0.2-1.3-0.7-1.8c-2.9-3.3-4.9-7.2-5.8-11.5c-0.4-2.2-0.5-4.6-0.8-7c-0.8,3.2-1.7,6.3-2.3,9.3
	c-0.3,1.3-0.3,2.7-0.1,4c1.3,6.8,2.7,13.6,4.1,20.4c0.4,1.9,0.3,4.5,1.5,5.4s3.7,0.3,5.7,0.3C81,115.6,81.3,115.5,81.6,115.5
	L81.6,115.5z M118.1,149.5l10.3-15h-18.9c0,3.5,0,6.9,0,10.3c0,0.6,0.4,1.1,0.8,1.4C112.9,147.4,115.4,148.4,118.1,149.5
	L118.1,149.5z M53.5,190.6c4.4,0,8.7,0,13,0c0.4,0,0.8-0.2,1.1-0.5c1.3-1.8,2.4-3.7,3.8-5.8l-15.7-7c-0.9,1.7-2.3,3.2-2.5,4.9
	C52.9,184.9,53.3,187.7,53.5,190.6L53.5,190.6z M53.8,169.5l9-12.8c-4-1.7-7.7-3.4-11.5-5c-0.7-0.2-1.5-0.3-2.3-0.3
	c-0.2,0.9-0.3,1.8-0.3,2.7c0.8,4.4,1.8,8.8,2.7,13.1C51.4,168.5,52.5,169.5,53.8,169.5C53.8,169.5,53.8,169.5,53.8,169.5L53.8,169.5
	z M90.8,186.1v-8.6c0-2.6,0-5.2,0-7.8c-0.1-0.5-0.4-1-0.8-1.3c-0.2-0.1-0.9,0.1-1.1,0.4c-2.8,4.2-5.5,8.4-8.3,12.8L90.8,186.1z
	 M109.6,176.9v13.9c1.7-0.3,3.9,0,4.8-0.9c2.3-2.4,4-5.4,6-8.4L109.6,176.9z M121.9,190.5h18.4c-4.3-2.2-8.7-4.1-13.1-5.9
	c-0.5-0.1-1,0-1.4,0.4C124.5,186.7,123.3,188.5,121.9,190.5L121.9,190.5z M153.6,146.2L153,146c-3.2,4.6-6.4,9.2-9.8,14l6.2,2.6
	C150.9,157,152.2,151.6,153.6,146.2L153.6,146.2z M42.5,134.4c0.8,2.3,1.7,4.3,2.3,6.4c0.2,1.3,1.4,2.2,2.7,2.1l6-8.5H42.5z
	 M97.2,121.9v6.1h6v-6.1L97.2,121.9z M114.4,154.8l-4.8-2v8.8C111.3,159.2,112.8,157.2,114.4,154.8z M153.2,134.5H143l4.5,2.1
	C151.1,138.2,151.1,138.2,153.2,134.5L153.2,134.5z M84.5,190.5l0.1-0.3l-7.5-3.3l-2.3,3.6H84.5z M90.7,134.1
	c-1.9,0.8-4.2-0.9-5.5,1.7l5.5,2.3V134.1z"/>
<path class="st0" d="M132.8,90.1l3.5-5.2L155,97.4l-3.4,5.2L132.8,90.1z"/>
<path class="st0" d="M142.2,77.6l3.5-5.2l9.4,6.2l-3.4,5.2L142.2,77.6z"/>
<path class="st0" d="M95,92.8l4.3-4.1c4,2.6,4.3,2.6,8.2-0.1l4,4.1C108,98.1,99.7,98.2,95,92.8z"/>
<path class="st0" d="M128.1,40.5h-18.5v-6h18.5V40.5z"/>
<path class="st0" d="M128.1,53h-18.4v-6h18.4V53z"/>
<path class="st0" d="M101.2,63.5l4.1,4.3c-3.7,5.4-12,5.4-16.4,0l4.4-4C96.7,66.2,97.8,66.2,101.2,63.5z"/>
</svg>
